<?xml version="1.0" encoding="UTF-8" standalone="no"?>
<svg
   width="16"
   height="16"
   fill="currentColor"
   class="bi bi-microsoft-teams"
   viewBox="0 0 16 16"
   version="1.1"
   id="svg2"
   sodipodi:docname="microsoft-teams.svg"
   xml:space="preserve"
   inkscape:version="1.3.2 (091e20e, 2023-11-25, custom)"
   xmlns:inkscape="http://www.inkscape.org/namespaces/inkscape"
   xmlns:sodipodi="http://sodipodi.sourceforge.net/DTD/sodipodi-0.dtd"
   xmlns="http://www.w3.org/2000/svg"
   xmlns:svg="http://www.w3.org/2000/svg"><defs
     id="defs2" /><sodipodi:namedview
     id="namedview2"
     pagecolor="#505050"
     bordercolor="#eeeeee"
     borderopacity="1"
     inkscape:showpageshadow="0"
     inkscape:pageopacity="0"
     inkscape:pagecheckerboard="0"
     inkscape:deskcolor="#505050"
     showgrid="false"
     inkscape:zoom="6.0104076"
     inkscape:cx="10.481818"
     inkscape:cy="1.9965368"
     inkscape:window-width="1440"
     inkscape:window-height="740"
     inkscape:window-x="-6"
     inkscape:window-y="-6"
     inkscape:window-maximized="1"
     inkscape:current-layer="svg2" /><rect
     style="fill:#ffffff;fill-opacity:1;stroke:#000000;stroke-width:0.529134"
     id="rect2"
     width="5.352941"
     height="6.352941"
     x="1.3529412"
     y="4.1176472" /><path
     d="M9.186 4.797a2.42 2.42 0 1 0-2.86-2.448h1.178c.929 0 1.682.753 1.682 1.682zm-4.295 7.738h2.613c.929 0 1.682-.753 1.682-1.682V5.58h2.783a.7.7 0 0 1 .682.716v4.294a4.197 4.197 0 0 1-4.093 4.293c-1.618-.04-3-.99-3.667-2.35Zm10.737-9.372a1.674 1.674 0 1 1-3.349 0 1.674 1.674 0 0 1 3.349 0m-2.238 9.488-.12-.002a5.2 5.2 0 0 0 .381-2.07V6.306a1.7 1.7 0 0 0-.15-.725h1.792c.39 0 .707.317.707.707v3.765a2.6 2.6 0 0 1-2.598 2.598z"
     id="path1"
     style="fill:#7b83eb;fill-opacity:1" /><path
     d="M.682 3.349h6.822c.377 0 .682.305.682.682v6.822a.68.68 0 0 1-.682.682H.682A.68.68 0 0 1 0 10.853V4.03c0-.377.305-.682.682-.682Zm5.206 2.596v-.72h-3.59v.72h1.357V9.66h.87V5.945z"
     id="path2"
     style="fill:#444bb5;fill-opacity:1" /><path
     style="fill:#5059c9;fill-opacity:1;stroke:none;stroke-width:0.0220091"
     d="m 13.33194,12.551145 c 0.01683,-0.04003 0.07252,-0.213172 0.123764,-0.384749 0.20273,-0.678806 0.208095,-0.771028 0.208095,-3.5771283 0,-2.3435129 -0.0077,-2.6611792 -0.06793,-2.8180285 l -0.06792,-0.1767767 h 0.945267 c 0.90902,0 0.952296,0.00371 1.128585,0.096708 0.114284,0.060289 0.218305,0.1581887 0.276222,0.2599658 0.09277,0.1630273 0.09291,0.1662542 0.09359,2.2883229 6.38e-4,1.9814128 -0.0049,2.1467838 -0.08148,2.4463378 -0.04519,0.1767 -0.142776,0.43706 -0.216852,0.578578 -0.178282,0.340596 -0.719946,0.88226 -1.060541,1.060541 -0.306067,0.160208 -0.819321,0.29902 -1.10562,0.29902 -0.179896,0 -0.201922,-0.0092 -0.175174,-0.07279 z"
     id="path3" /><path
     style="fill:#5059c9;fill-opacity:1;stroke:none;stroke-width:0.0311255"
     d="M 13.375609,4.7025481 C 13.03555,4.576947 12.702207,4.2726072 12.500368,3.9034589 12.356353,3.6400661 12.327966,3.5205307 12.327721,3.1764706 12.327359,2.6668807 12.480111,2.3205313 12.85942,1.9708965 13.209152,1.648525 13.476654,1.5410596 13.945256,1.534676 c 0.320318,-0.00436 0.445832,0.025107 0.733616,0.1722511 0.400646,0.2048514 0.740848,0.6071751 0.853427,1.009266 0.08898,0.3177998 0.04471,0.872331 -0.09116,1.1419157 -0.141413,0.2805823 -0.486168,0.6294653 -0.764667,0.7738218 -0.306922,0.1590889 -0.964659,0.1947943 -1.300862,0.070617 z"
     id="path4" /></svg>
