<svg xmlns="http://www.w3.org/2000/svg" viewBox="0 0 99.18 71.83"><defs><style>.cls-1{fill:none;stroke:#ed1c24;stroke-miterlimit:10;}.cls-2{fill:#ed1c24;}</style></defs><g id="Layer_2" data-name="Layer 2"><g id="Layer_2-2" data-name="Layer 2"><path class="cls-1" d="M98.68,68.29a3,3,0,0,1-2.94,3H3.44a3,3,0,0,1-2.94-3V3.53A3,3,0,0,1,3.44.5h92.3a3,3,0,0,1,2.94,3Z"/><path class="cls-2" d="M30.53,51.32l-1.87,12H25.4l1.18-7.43H15.72l-.25,1.7a4.22,4.22,0,0,0,0,.6c0,1.57,1.13,2.33,3.38,2.28L22,60.34l-.45,2.93-3.69,0q-5.73.12-5.73-4.63a8.24,8.24,0,0,1,.12-1.35L13,52.92H27l.22-1.29a3.42,3.42,0,0,0,0-.44c0-1.23-.82-1.84-2.45-1.84H19.46a2.61,2.61,0,0,0-2.87,1.89H13.35a5.34,5.34,0,0,1,2.19-3.46,6.88,6.88,0,0,1,4.21-1.33H25.4a6,6,0,0,1,3.82,1.11,3.58,3.58,0,0,1,1.39,3A4.52,4.52,0,0,1,30.53,51.32Z"/><path class="cls-2" d="M50.13,51.32l-1.88,12H45l1.18-7.43H35.32l-.26,1.7q0,.32,0,.6c0,1.57,1.13,2.33,3.38,2.28l3.2-.08-.44,2.93-3.7,0q-5.72.12-5.72-4.63a9.42,9.42,0,0,1,.11-1.35l.68-4.42h14.1l.22-1.29a3.37,3.37,0,0,0,0-.44c0-1.23-.81-1.84-2.44-1.84H39.06a2.61,2.61,0,0,0-2.87,1.89H33a5.34,5.34,0,0,1,2.19-3.46,6.86,6.86,0,0,1,4.21-1.33h2.94l1.59-1.69h3.91l-1.72,1.77q4.14.45,4.14,4A4.52,4.52,0,0,1,50.13,51.32Z"/><path class="cls-2" d="M71,46.45l-5.32,4.21a4.22,4.22,0,0,1,2.62,1,2.86,2.86,0,0,1,1,2.28,4.64,4.64,0,0,1,0,.63l-.51,3.37q-.82,5.38-7.29,5.38H57.29q-5.61,0-5.61-4.33a7.65,7.65,0,0,1,.08-1l.57-3.7c.14-1,.9-1.83,2.27-2.64s2.09-1.45,2.16-2c.06-.35-.1-.53-.48-.53s-1,.44-2,1.33l-2.45-2.52L54,46.06l1.15,1.23a4,4,0,0,1,2.41-1,2.37,2.37,0,0,1,1.81.71,2.7,2.7,0,0,1,.66,1.9,3.44,3.44,0,0,1,0,.54,4.41,4.41,0,0,1-2.27,3q-2,1.3-2.22,2.43l-.38,2.49A3.86,3.86,0,0,0,55,58c0,1.58,1,2.37,3,2.37h3.62c2.29,0,3.59-1,3.92-3.08l.37-2.45a1.57,1.57,0,0,0-.79-1.67,4.29,4.29,0,0,0-2.63-.46l-1.33.08.35-2.14,5-4.21Z"/><path class="cls-2" d="M71.39,41.87,71,44.13H55.42l.37-2.26Z"/><path class="cls-2" d="M72.76,34.45l-.65,4h-3.2l.65-4Z"/><path class="cls-2" d="M88.84,50l-1.29,8a5.89,5.89,0,0,1-2.22,3.92,7.48,7.48,0,0,1-4.68,1.38H71.8l1-16.82h3.32l-.86,13.93h5.34q3.33,0,3.73-2.61l1.18-7.33a.83.83,0,0,0-.27-.8,1.64,1.64,0,0,0-1.06-.29l-1.69,0L83,46.45l1.93-.08q4-.16,4,2.85A4.46,4.46,0,0,1,88.84,50Z"/><polygon class="cls-2" points="31.24 44.29 16.12 44.29 16.12 38.45 21.07 38.45 24.91 34.71 32.37 34.71 32.37 38.17 41.26 38.17 41.26 44.13 37.68 44.13 37.68 42.18 39.26 42.18 39.26 40.12 30.37 40.12 30.37 36.66 25.73 36.66 21.9 40.4 18.12 40.4 18.12 42.34 31.24 42.34 31.24 44.29"/><path class="cls-2" d="M22.55,18.29a2.54,2.54,0,0,1,1.35,1.5,5.35,5.35,0,0,1,.1,2.48l-.28,1.93a5.2,5.2,0,0,1-.56,1.62,5.43,5.43,0,0,1-1,1.32,4.2,4.2,0,0,1-1.31.9,3.53,3.53,0,0,1-1.51.34h-5a2.48,2.48,0,0,1-2.14-.94,3.36,3.36,0,0,1-.47-2.54l.46-3.07,4-2.91a.86.86,0,0,0-.08-.62.59.59,0,0,0-.48-.17H11.87l.46-3H16a2.88,2.88,0,0,1,1.43.33,2.48,2.48,0,0,1,.92.9,3.43,3.43,0,0,1,.44,1.32,5.68,5.68,0,0,1,0,1.59c0,.2-.07.38-.11.56s-.1.41-.2.71l-3.88,2.78-.2,1.46a.49.49,0,0,0,.09.43.5.5,0,0,0,.4.17h4.9a1.06,1.06,0,0,0,.78-.32A1.49,1.49,0,0,0,21,24.2l.22-1.61a3.62,3.62,0,0,0,0-1.63.86.86,0,0,0-.76-.62H19l.45-3.07,2.83-2.18h4.4Z"/><path class="cls-2" d="M22.42,32.93a3.64,3.64,0,0,1-.36,1.13,3.38,3.38,0,0,1-.68.91,3.06,3.06,0,0,1-.91.62,2.38,2.38,0,0,1-1,.22H17.68a1.9,1.9,0,0,1-1.67-.9,3,3,0,0,1-.37-2.23H14.45l.4-2.69h3.74l-.4,2.63a.56.56,0,0,0,0,.41c0,.06.16.09.35.09h.79c.33,0,.51-.18.57-.53l.37-2.6h2.58Z"/><path class="cls-2" d="M25.19,28.38l2-13.29H29.9l-2,13.29Z"/><path class="cls-2" d="M40.1,28.38l1.36-9.11a1.15,1.15,0,0,0-.19-.81.77.77,0,0,0-.66-.33h-6a.59.59,0,0,0-.45.2,3.67,3.67,0,0,0-.37.43l.48,1.3L33,28.38H30.26l1.11-7.53-.85-2.41c.34-.38.67-.76,1-1.15a11.6,11.6,0,0,1,1-1.08,5.2,5.2,0,0,1,1.13-.81A2.91,2.91,0,0,1,35,15.09h6a2.94,2.94,0,0,1,1.41.33,3,3,0,0,1,1.05.9,3.3,3.3,0,0,1,.6,1.33,4.84,4.84,0,0,1,.06,1.62l-1.36,9.11Z"/><path class="cls-2" d="M32.25,13l.42-2.78H43l.26-1.71h2.52L45.14,13Z"/><path class="cls-2" d="M58.26,24.2a5.45,5.45,0,0,1-.55,1.62,5.74,5.74,0,0,1-1,1.32,4.2,4.2,0,0,1-1.31.9,3.57,3.57,0,0,1-1.51.34H48.51A3.32,3.32,0,0,1,46,27.43a3,3,0,0,1-.65-2.69l.22-1.49L48,21.83c-1.45-.19-2.06-1.15-1.81-2.88l.11-.66q.48-3.19,3.37-3.2h3.91l-.45,3H49.36c-.25,0-.38.1-.4.31l-.05.63c0,.2,0,.29.17.29H53l.53,1.55-5.49,3.58,0,.25a.42.42,0,0,0,0,.38.52.52,0,0,0,.26.17,1.16,1.16,0,0,0,.34.05h5.68a1.06,1.06,0,0,0,.76-.33,1.46,1.46,0,0,0,.43-.81l1.36-9.11h2.72Z"/><path class="cls-2" d="M72,24.2a5.84,5.84,0,0,1-.51,1.58,4.85,4.85,0,0,1-.92,1.33,4.71,4.71,0,0,1-1.23.92,3.14,3.14,0,0,1-1.42.35h-8l.45-3h8a.75.75,0,0,0,.54-.25,1.72,1.72,0,0,0,.37-.89l.06-.5-9-2,.37-2.4a5.61,5.61,0,0,1,.48-1.59,5.11,5.11,0,0,1,.93-1.33,4.41,4.41,0,0,1,1.24-.91,3.05,3.05,0,0,1,1.43-.35h5.1a2.46,2.46,0,0,1,1.32.35,2.88,2.88,0,0,1,1,.91,3.51,3.51,0,0,1,.53,1.33,5.27,5.27,0,0,1,0,1.59l-.12.63H69.9l.12-.63a1.19,1.19,0,0,0-.13-.86.57.57,0,0,0-.44-.28h-5.1a.83.83,0,0,0-.53.28,1.53,1.53,0,0,0-.38.86l0,.28,9,2Z"/><path class="cls-2" d="M84.58,28.38l1.36-9.11a1.1,1.1,0,0,0-.18-.81.79.79,0,0,0-.67-.33h-.74l-2.72,1.74-2.32-1.74h-.74a1.13,1.13,0,0,0-.78.33,1.32,1.32,0,0,0-.41.81l-.9,5.94L80,23H78.43l.34-2.34h5.39l-.37,2.44-7.85,5.28H73.3l1.36-9.11a4.68,4.68,0,0,1,.53-1.62,5.33,5.33,0,0,1,1-1.33,4.64,4.64,0,0,1,1.34-.9,3.63,3.63,0,0,1,1.5-.33h1.39l1.64,1.42,2.12-1.42h1.36a3,3,0,0,1,1.42.33,3,3,0,0,1,1.05.9,3.43,3.43,0,0,1,.59,1.33,4.37,4.37,0,0,1,.06,1.62L87.3,28.38Z"/><path class="cls-2" d="M76.7,13l.43-2.78H90L89.57,13Z"/></g></g></svg>