<?xml version="1.0" encoding="UTF-8" standalone="no"?>
<!-- Created with Inkscape (http://www.inkscape.org/) -->

<svg
   width="274.25726mm"
   height="197.19881mm"
   viewBox="0 0 274.25726 197.19881"
   version="1.1"
   id="svg1"
   xml:space="preserve"
   xmlns:inkscape="http://www.inkscape.org/namespaces/inkscape"
   xmlns:sodipodi="http://sodipodi.sourceforge.net/DTD/sodipodi-0.dtd"
   xmlns="http://www.w3.org/2000/svg"
   xmlns:svg="http://www.w3.org/2000/svg"><sodipodi:namedview
     id="namedview1"
     pagecolor="#505050"
     bordercolor="#eeeeee"
     borderopacity="1"
     inkscape:showpageshadow="0"
     inkscape:pageopacity="0"
     inkscape:pagecheckerboard="0"
     inkscape:deskcolor="#505050"
     inkscape:document-units="mm" /><defs
     id="defs1" /><g
     inkscape:label="Layer 1"
     inkscape:groupmode="layer"
     id="layer1"
     transform="translate(804.78517,-48.487971)"><path
       style="fill:#ff5555;stroke:#ff5555;stroke-width:6.67623;stroke-dasharray:none"
       d="m -679.25438,242.18486 c -22.41412,-1.24582 -43.61317,-10.61293 -60.10436,-26.558 -2.70042,-2.61099 -5.12813,-4.74726 -5.39491,-4.74726 -0.26675,0 -7.5864,2.87592 -16.26584,6.39093 -8.67944,3.51501 -15.81449,6.3468 -15.85569,6.29288 -0.53361,-0.69868 -24.78878,-61.5144 -24.56812,-61.60039 0.1682,-0.0656 7.55917,-3.05719 16.42441,-6.6481 l 16.1186,-6.52892 0.1012,-2.40481 c 0.94242,-22.39319 6.90018,-39.83262 19.3013,-56.498335 3.67197,-4.93472 10.53966,-12.18168 15.33242,-16.1792 13.4248,-11.19725 30.45651,-18.6865 48.06612,-21.13582 5.9569,-0.82855 18.44839,-0.95425 23.88184,-0.24031 21.24041,2.79092 39.66769,11.44729 54.33584,25.52472 l 4.26281,4.09114 22.42095,-9.06279 c 12.33151,-4.98453 22.48747,-8.99627 22.56875,-8.91498 0.26633,0.26634 24.91208,61.362495 24.78587,61.443515 -0.0676,0.0434 -9.95976,4.04869 -21.98246,8.90056 l -21.85947,8.82158 -0.098,3.51379 c -0.16505,5.91545 -1.0251,14.33235 -1.92135,18.80346 -5.87801,29.32344 -25.07949,54.24111 -51.85648,67.29398 -14.90602,7.26616 -30.67561,10.38823 -47.6934,9.44236 z m 18.35865,-5.93676 c 37.63634,-5.24936 68.12118,-33.73892 75.70861,-70.75336 1.4914,-7.27563 2.61919,-19.97274 1.77401,-19.97274 -0.5148,0 -26.53739,10.67086 -26.89522,11.02869 -0.22116,0.22117 -0.94371,2.55089 -1.60567,5.17715 -6.06333,24.05556 -25.00106,42.17998 -49.59295,47.46307 -6.0153,1.29227 -18.39338,1.40397 -24.30351,0.21932 -8.37409,-1.67854 -17.21535,-5.28285 -23.81533,-9.70881 l -2.99186,-2.00635 -13.12674,5.30591 c -7.21969,2.91825 -13.18303,5.36146 -13.25182,5.42936 -0.22354,0.22056 6.67065,6.76106 9.61962,9.12613 11.9431,9.57834 27.80969,16.43741 43.16105,18.6584 6.00734,0.86912 19.20256,0.88644 25.31981,0.0332 z m -89.45714,-94.95803 c 6.31497,-2.54586 11.73412,-4.78561 12.04257,-4.97722 0.30845,-0.19161 1.05513,-2.38985 1.65928,-4.88498 2.88491,-11.91429 8.61401,-22.11241 17.25099,-30.70774 8.92868,-8.885605 19.95892,-14.830315 32.55515,-17.545485 6.48081,-1.39697 18.85712,-1.39697 25.33793,0 8.23923,1.776 16.33987,5.16356 22.88027,9.56818 l 3.09123,2.08178 12.95144,-5.22003 c 7.12329,-2.87101 13.04686,-5.37444 13.16352,-5.56316 0.11663,-0.18872 -1.02185,-1.48602 -2.52995,-2.88289 -13.68232,-12.67308 -30.58795,-20.71098 -48.94529,-23.27139 -6.42102,-0.89558 -18.38902,-0.89333 -24.82734,0.005 -37.59393,5.24344 -68.09232,33.75636 -75.67522,70.748695 -1.05154,5.12981 -1.98192,12.6841 -1.98192,16.09233 0,1.49896 0.11719,1.72285 0.7728,1.47649 0.42505,-0.15971 5.9396,-2.37337 12.25454,-4.91924 z"
       id="path7"
       inkscape:export-filename="seized.svg"
       inkscape:export-xdpi="96"
       inkscape:export-ydpi="96" /><text
       xml:space="preserve"
       style="font-size:56.0293px;font-family:CordiaUPC;-inkscape-font-specification:CordiaUPC;fill:#f9f9f9;stroke:#f9f9f9;stroke-width:4.41175;stroke-dasharray:none"
       x="-711.45404"
       y="-91.688858"
       id="text7"
       transform="matrix(1.0427693,-0.39353639,0.31679612,0.83942748,0,0)"><tspan
         sodipodi:role="line"
         id="tspan7"
         style="font-style:normal;font-variant:normal;font-weight:normal;font-stretch:normal;font-family:FZYaoTi;-inkscape-font-specification:FZYaoTi;fill:#f9f9f9;stroke:#f9f9f9;stroke-width:4.41175"
         x="-711.45404"
         y="-91.688858">STOCKED</tspan></text><path
       style="opacity:0.568665;fill:#f9f9f9;stroke:none;stroke-width:25.233;stroke-dasharray:none"
       d="m -2896.7519,447.44434 c 2.8407,-2.31465 2.8921,-2.63985 0.4173,-2.63985 -1.5525,0 -2.8226,-0.78387 -2.8226,-1.74195 0,-4.29487 12.9712,-35.93412 22.1135,-53.93881 20.4027,-40.18105 57.3511,-89.47961 67.1184,-89.55302 2.3279,-0.0175 2.7414,-0.44431 1.3105,-1.35284 -2.5811,-1.63877 5.0469,-9.30875 11.0735,-11.13451 2.7225,-0.82478 3.3269,-1.60561 1.9172,-2.47684 -1.2944,-0.79999 -0.1097,-1.55838 3.1911,-2.04284 2.8874,-0.42378 5.6596,-0.10739 6.1605,0.70308 0.5009,0.81047 2.3056,-0.1348 4.0106,-2.10059 1.7049,-1.9658 3.8965,-3.08179 4.8703,-2.47998 0.9737,0.60181 2.9708,-0.10624 4.438,-1.57343 2.0592,-2.05912 3.1984,-2.22714 4.9944,-0.73657 1.627,1.35025 2.3268,1.38047 2.3268,0.10047 0,-2.45891 8.5897,-6.67469 11.4985,-5.64341 1.412,0.50062 1.8646,0.0875 1.1576,-1.05643 -0.6823,-1.10398 0.7157,-2.73353 3.3905,-3.95229 3.4547,-1.57403 4.7093,-1.6004 5.2063,-0.10941 0.8721,2.61614 8.7446,-4.20387 8.9219,-7.72907 0.087,-1.72187 0.4203,-1.90475 0.9736,-0.53354 0.463,1.14747 1.9502,2.08632 3.3049,2.08632 1.3546,0 2.1623,-0.56331 1.7947,-1.25179 -0.6704,-1.25579 4.5142,-6.96262 6.5802,-7.24306 0.606,-0.0823 1.7308,0.97452 2.4997,2.34837 0.856,1.52958 2.8552,2.17845 5.1572,1.67382 3.116,-0.68307 3.3309,-0.49197 1.2557,1.11682 -2.2254,1.72526 -2.2254,1.86167 0,1.22766 1.377,-0.39229 2.445,-2.31755 2.3734,-4.27835 -0.1464,-4.00758 4.1783,-6.07113 9.31,-4.44236 2.1805,0.69205 3.347,0.29693 3.3637,-1.13932 0.019,-1.61551 0.4548,-1.53465 1.6435,0.30479 1.1757,1.81922 1.625,1.90635 1.6435,0.31876 0.014,-1.20165 0.7889,-1.71306 1.7219,-1.13646 0.9329,0.5766 1.2642,1.74754 0.736,2.60209 -0.5281,0.85455 -0.1649,1.55373 0.8073,1.55373 0.9722,0 1.7676,-1.79733 1.7676,-3.99408 0,-5.28643 3.6139,-6.43208 10.808,-3.42621 5.4351,2.27094 5.8845,2.23402 5.9081,-0.48535 0.02,-2.24911 0.3584,-2.4182 1.4368,-0.71698 1.1363,1.79247 1.6089,1.71116 2.4257,-0.41726 0.5579,-1.45395 2.1381,-2.64354 3.5116,-2.64354 1.3735,0 3.3622,-1.61604 4.4192,-3.5912 1.5517,-2.89932 1.4826,-3.42616 -0.3585,-2.73456 -1.2543,0.47115 -3.7827,0.26228 -5.6186,-0.46414 -2.5537,-1.01041 -1.8216,-1.34835 3.1155,-1.43809 5.5617,-0.1011 6.3382,0.32422 5.6182,3.07731 -0.7213,2.75852 -0.048,3.12144 4.9316,2.65862 4.4082,-0.4097 5.5547,0.0174 4.8658,1.81257 -0.4957,1.2917 -0.1737,2.34855 0.7154,2.34855 0.8892,0 1.6167,-1.14092 1.6167,-2.53539 0,-1.93031 1.0954,-2.26256 4.5899,-1.3922 4.0067,0.99791 4.3194,0.81463 2.461,-1.44235 -1.7476,-2.12248 -1.6825,-2.75683 0.3638,-3.54208 1.3711,-0.5261 2.9367,-0.23828 3.4793,0.63962 1.7252,2.7915 4.1276,1.72031 4.1276,-1.84046 0,-1.89014 0.751,-2.97243 1.669,-2.40509 0.918,0.56735 1.6691,0.26508 1.6691,-0.67169 0,-0.93678 2.885,-2.48009 6.4112,-3.42959 3.5261,-0.94949 7.7735,-3.23167 9.4385,-5.07151 1.665,-1.83984 4.0819,-3.34516 5.3707,-3.34516 1.2889,0 1.917,-0.68996 1.3958,-1.53324 -0.5211,-0.84329 1.3122,-2.02958 4.0742,-2.63621 3.0633,-0.67282 5.0217,-2.15778 5.0217,-3.80775 0,-2.10372 0.4451,-2.2597 2.0029,-0.70191 2.8787,2.87874 4.7463,2.46581 3.5028,-0.77452 -0.7166,-1.86749 -0.426,-2.38202 0.8869,-1.57056 1.074,0.66376 1.9527,2.35172 1.9527,3.75101 0,4.23909 4.1353,1.48727 4.6844,-3.1172 0.5144,-4.31338 6.0868,-7.45745 7.9304,-4.47447 0.5141,0.8318 1.8292,1.50087 2.9225,1.48681 1.2266,-0.0158 1.029,-0.71043 -0.5157,-1.81384 -2.0111,-1.43652 -1.7644,-1.62627 1.2541,-0.96463 2.0667,0.45301 3.3688,0.19453 2.8936,-0.57441 -1.0138,-1.6403 2.2843,-4.05902 5.8666,-4.30247 7.6437,-0.51947 8.4605,-0.79676 7.4003,-2.51226 -0.7564,-1.22394 -0.024,-1.49294 2.1699,-0.79669 4.1088,1.30408 9.1312,-0.45937 7.7364,-2.71632 -0.6406,-1.03638 0.3158,-1.24459 2.5131,-0.54717 2.3904,0.75866 3.5494,0.40873 3.5541,-1.07298 0.017,-5.32275 39.0989,-2.78648 73.3625,4.76094 25.0007,5.50703 36.503,9.06787 62.2417,19.26846 20.8384,8.25853 25.4714,11.32565 17.1079,11.32565 -2.295,0 -4.1727,0.78733 -4.1727,1.74963 0,2.27161 -10.0235,6.48737 -12.8478,5.40361 -1.286,-0.49348 -2.2216,0.43166 -2.291,2.26528 -0.1106,2.92107 -0.1901,2.9137 -1.3812,-0.1279 -0.8688,-2.2186 -1.6454,-2.60986 -2.4848,-1.2518 -0.6715,1.08655 -0.78,2.68893 -0.2411,3.56086 1.1594,1.87605 -5.2021,5.65125 -7.3186,4.34316 -0.8029,-0.49617 -1.9544,0.3869 -2.5589,1.96237 -0.9432,2.45773 -1.3235,2.51562 -2.6786,0.40768 -1.2922,-2.01024 -1.7682,-1.76713 -2.6186,1.33745 -0.9716,3.54707 -1.1802,3.60161 -3.2016,0.83715 -1.1893,-1.62641 -2.7244,-2.39498 -3.4115,-1.70794 -0.687,0.68704 -0.3729,1.24917 0.6981,1.24917 1.071,0 1.9472,1.17094 1.9472,2.60209 0,1.66338 -0.7526,2.13239 -2.0863,1.30008 -1.1475,-0.7161 -3.5637,-1.53166 -5.3693,-1.81236 -1.8057,-0.28069 -7.8234,-1.91271 -13.3727,-3.62671 -13.6235,-4.20789 -39.3791,-9.66708 -52.4584,-11.11919 -9.4941,-1.05405 -10.3524,-1.4396 -7.6326,-3.42834 1.6854,-1.23241 2.689,-2.61611 2.2302,-3.07489 -0.4588,-0.45878 -2.438,0.66007 -4.3983,2.48635 -4.5238,4.21454 -6.3265,4.20385 -6.3265,-0.0375 0,-1.84689 0.7617,-3.10409 1.6927,-2.79377 0.9309,0.31032 3.1648,-0.80735 4.9642,-2.48372 1.7994,-1.67637 4.6321,-3.04794 6.295,-3.04794 1.9107,0 3.0234,-1.22853 3.0234,-3.33812 0,-1.83597 0.7511,-3.33812 1.669,-3.33812 0.918,0 1.6691,-1.12661 1.6691,-2.50359 0,-1.37697 0.7511,-2.50359 1.6691,-2.50359 2.5692,0 1.9765,-2.86301 -0.8145,-3.93401 -1.366,-0.52417 -2.4037,-0.41676 -2.306,0.23869 0.5548,3.72186 -0.5313,3.99024 -2.8354,0.70065 -1.4398,-2.05558 -3.3625,-3.27721 -4.2726,-2.71473 -0.9513,0.58794 -0.3717,1.96083 1.3634,3.22958 3.4327,2.51004 3.0386,3.21483 -2.8053,5.01682 -3.8967,1.20159 -4.0022,1.08287 -1.669,-1.87898 2.3545,-2.98899 2.3082,-3.02492 -0.8476,-0.65802 -1.836,1.37698 -3.9213,3.41124 -4.6341,4.52059 -0.7128,1.10936 -2.4027,1.59231 -3.7554,1.07323 -1.3527,-0.51908 -2.4594,-0.13592 -2.4594,0.85147 0,0.98738 -1.0063,1.4091 -2.2362,0.93714 -1.2299,-0.47196 -3.1996,0.30269 -4.377,1.72144 -1.1775,1.41875 -3.5954,2.57955 -5.3731,2.57955 -1.7778,0 -2.8173,0.67148 -2.3101,1.49217 1.1198,1.8118 -11.9886,7.30971 -14.1877,5.95061 -0.8574,-0.52995 -1.559,-0.24788 -1.559,0.62683 0,0.8747 -6.9475,2.09818 -15.4388,2.71883 -19.3867,1.41702 -41.8263,5.05527 -57.8617,9.38142 -6.8089,1.83695 -13.5457,2.89252 -14.9707,2.3457 -1.4249,-0.54681 -2.0536,-0.45697 -1.397,0.19964 0.6566,0.65662 -6.2261,3.99363 -15.2949,7.41559 -19.7538,7.45377 -46.7501,20.87959 -62.7217,31.19283 -53.9851,34.85943 -98.9766,86.9747 -123.0876,142.57663 -5.7407,13.23852 -7.3347,15.66641 -8.8895,13.54008 -1.042,-1.42501 -2.9556,-2.17133 -4.2526,-1.65849 -1.6577,0.65549 -1.4327,0.97156 0.7575,1.06419 2.2714,0.0961 2.8789,1.03679 2.242,3.4722 -0.4805,1.83723 -0.1925,2.91951 0.6398,2.40508 1.9777,-1.22226 1.8931,1.09874 -0.1556,4.26885 -0.9048,1.40006 -1.6292,1.65286 -1.6435,0.57352 -0.015,-1.12034 -1.6011,-1.59732 -3.781,-1.13696 -3.3084,0.69874 -3.4077,0.57095 -0.8345,-1.07372 3.566,-2.27919 3.8944,-5.76981 0.4173,-4.4355 -1.5251,0.58521 -2.5036,0.003 -2.5036,-1.49048 0,-1.34817 -0.7511,-2.45122 -1.6691,-2.45122 -0.918,0 -1.669,0.79541 -1.669,1.76757 0,0.97216 -0.6906,1.34079 -1.5345,0.81919 -0.844,-0.52161 -2.5861,0.10313 -3.8712,1.38833 -1.6128,1.61277 -3.2058,1.85038 -5.1418,0.76693 -1.8428,-1.03128 -2.805,-0.96877 -2.805,0.18223 0,0.96359 -1.0463,1.75199 -2.325,1.75199 -1.2788,0 -2.7192,1.02726 -3.201,2.28281 -0.4818,1.25555 -2.6277,2.66111 -4.7685,3.12348 -2.1409,0.46238 -5.3947,1.37412 -7.2306,2.0261 -3.2908,1.16861 -3.2922,1.14798 -0.098,-1.45442 z m 15.9543,-9.31609 c 0,-0.91798 -0.3312,-1.66906 -0.736,-1.66906 -0.4048,0 -1.2002,0.75108 -1.7676,1.66906 -0.5673,0.91798 -0.2361,1.66906 0.7361,1.66906 0.9721,0 1.7675,-0.75108 1.7675,-1.66906 z m 102.6675,-156.59317 c -1.3262,-1.32625 -4.1959,1.6845 -3.177,3.33317 0.6931,1.1214 1.5532,0.95069 2.4401,-0.48425 0.7533,-1.2189 1.0849,-2.50092 0.7369,-2.84892 z m 17.5048,-4.56962 c 0,-1.43115 -0.7633,-2.13033 -1.6962,-1.55373 -0.933,0.5766 -1.2642,1.74754 -0.7361,2.60209 1.4308,2.31506 2.4323,1.88339 2.4323,-1.04836 z m 13.3525,-6.47924 c 0,-0.40481 -0.751,-1.20021 -1.669,-1.76756 -0.918,-0.56734 -1.6691,-0.23613 -1.6691,0.73603 0,0.97216 0.7511,1.76756 1.6691,1.76756 0.918,0 1.669,-0.33121 1.669,-0.73603 z m 323.7977,-32.64517 c 1.4363,-0.92826 1.6724,-1.62884 0.5537,-1.6435 -1.0724,-0.0141 -3.1463,-0.48472 -4.6088,-1.04592 -1.9462,-0.74683 -2.3824,-0.29938 -1.627,1.66906 1.1869,3.09306 2.1948,3.27404 5.6821,1.02036 z m 19.9745,-14.92025 c 1.2648,-2.36335 1.1681,-3.56157 -0.3586,-4.44024 -1.1499,-0.66188 -1.5539,-0.60871 -0.8977,0.11816 0.6562,0.72687 0.442,2.72498 -0.476,4.44024 -0.918,1.71527 -1.2935,3.11867 -0.8346,3.11867 0.459,0 1.6141,-1.45657 2.5669,-3.23683 z m -128.4634,-9.28112 c 0,-1.37697 -0.6259,-2.50359 -1.3909,-2.50359 -0.765,0 -1.3909,1.12662 -1.3909,2.50359 0,1.37698 0.6259,2.50359 1.3909,2.50359 0.765,0 1.3909,-1.12661 1.3909,-2.50359 z"
       id="path8"
       transform="scale(0.26458333)" /><path
       style="opacity:0.535783;fill:#f9f9f9;stroke:none;stroke-width:25.233;stroke-dasharray:none"
       d="m -2752.4776,446.89082 c -0.1087,-0.68849 -0.077,-1.91076 0.071,-2.71615 0.1477,-0.80539 -3.9262,-1.11649 -9.053,-0.69133 -5.1269,0.42516 -9.7095,0.14527 -10.1837,-0.62198 -0.8363,-1.3532 2.5648,-2.04014 7.6801,-1.55119 1.8652,0.17828 1.7498,-0.22309 -0.4523,-1.57388 -1.6258,-0.99726 -2.4415,-2.64575 -1.8126,-3.66332 0.7277,-1.17735 0.1837,-1.48183 -1.4958,-0.83733 -7.7751,2.98359 -1.896,-10.06504 15.4215,-34.22764 10.4871,-14.63243 40.0934,-43.67276 56.1886,-55.11444 37.6451,-26.76103 80.7755,-42.75727 125.0889,-46.39308 28.52,-2.34001 69.1041,0.18136 69.1041,4.29323 0,1.21034 0.9389,2.64325 2.0864,3.18423 1.1475,0.54098 -0.1669,0.59205 -2.9209,0.11348 -4.8524,-0.84321 -4.904,-0.78547 -1.669,1.86767 3.3183,2.72151 3.317,2.73284 -0.2057,1.90625 -2.884,-0.6767 -3.4244,-0.17169 -2.9024,2.71226 0.3528,1.94909 0.2164,2.66919 -0.3031,1.60023 -1.5298,-3.14787 -20.7902,3.44268 -20.7902,7.11403 0,1.28717 -0.7511,2.4342 -1.6691,2.54894 -3.3352,0.4169 -4.2678,0.70433 -9.8209,3.02673 -5.0647,2.11815 -5.8617,2.07031 -7.7141,-0.46302 -1.8375,-2.51291 -2.1774,-2.26732 -3.0752,2.22143 -0.5551,2.77567 -1.5902,4.85303 -2.3002,4.61637 -0.71,-0.23667 -1.4146,0.23679 -1.5657,1.05215 -0.151,0.81534 -1.2108,2.06103 -2.355,2.76819 -1.3433,0.83019 0.1445,1.90007 4.1991,3.01959 3.4537,0.95361 7.1615,2.94019 8.2397,4.41461 2.179,2.98006 17.7304,5.02761 17.7304,2.33445 0,-0.89726 1.6438,-0.1 3.6529,1.77175 2.0091,1.87173 4.788,3.40314 6.1755,3.40314 1.8645,0 2.0341,0.48856 0.6502,1.87244 -1.0298,1.02985 -1.4279,3.03075 -0.8847,4.44646 0.6485,1.68993 0.3171,2.1595 -0.9649,1.36717 -1.1956,-0.73893 -1.9527,-0.11709 -1.9527,1.60389 0,2.21006 -1.0324,2.60425 -4.8308,1.84457 -4.3339,-0.86678 -4.7352,-0.58779 -3.9018,2.71222 0.511,2.02311 1.746,4.23019 2.7445,4.90462 1.1415,0.77101 0.8306,1.23572 -0.8375,1.25179 -1.4591,0.0141 -3.5085,-1.85213 -4.5541,-4.14709 -1.0457,-2.29496 -2.7127,-4.17265 -3.7046,-4.17265 -0.9918,0 -1.3624,0.71339 -0.8235,1.58532 0.5389,0.87192 -0.525,2.39062 -2.3641,3.37489 -2.8714,1.53672 -3.4941,1.19104 -4.407,-2.44663 -0.5848,-2.32991 -0.6733,-5.72734 -0.1967,-7.54984 0.4766,-1.82251 0.2374,-2.92482 -0.5316,-2.44959 -0.7689,0.47524 -1.7924,0.22596 -2.2744,-0.55394 -0.482,-0.7799 -3.1627,-1.08244 -5.9571,-0.67232 -6.2107,0.91154 -6.91,5.37399 -0.8422,5.37399 3.5114,0 3.8728,0.39149 2.1068,2.28203 -1.8017,1.9287 -2.6956,1.9126 -5.7733,-0.104 -2.0029,-1.31231 -4.6408,-2.19951 -5.8621,-1.97155 -1.2213,0.22796 -5.4018,-0.16497 -9.29,-0.87317 -3.8882,-0.7082 -7.3404,-1.03568 -7.6715,-0.72774 -0.3312,0.30795 -1.9848,-0.56671 -3.6747,-1.94369 -2.7833,-2.26779 -2.9695,-2.22849 -1.978,0.41727 0.7438,1.9848 0.2775,2.92085 -1.4551,2.92085 -1.4023,0 -2.1381,0.66598 -1.635,1.47995 1.4428,2.33451 -3.2141,5.27935 -7.5887,4.79877 -2.4628,-0.27056 -3.8189,0.35763 -3.5606,1.64932 0.2295,1.14748 -0.3338,2.08632 -1.2518,2.08632 -0.918,0 -1.6691,-0.96678 -1.6691,-2.14841 0,-1.18162 -1.6899,-2.23168 -3.7553,-2.33348 -2.0655,-0.10178 -2.8166,0.17651 -1.6691,0.61844 1.1475,0.44193 2.0863,1.46842 2.0863,2.2811 0,0.81267 -1.1266,1.04526 -2.5036,0.51687 -1.3769,-0.5284 -2.5036,-0.21843 -2.5036,0.68881 0,2.86941 -12.1868,11.07744 -15.9809,10.76343 -2.0005,-0.16557 -5.561,1.48178 -7.9122,3.66077 -2.3512,2.17899 -4.7531,3.48358 -5.3376,2.89908 -0.5845,-0.5845 -1.7948,0.2454 -2.6895,1.84422 -1.7716,3.16566 -6.4681,3.99297 -6.4681,1.13939 0,-0.97216 -0.7569,-1.29981 -1.6819,-0.72812 -1.0436,0.64496 -0.7317,1.98961 0.8217,3.54304 1.377,1.37698 3.2086,2.06792 4.0702,1.53542 0.8616,-0.53249 2.0082,-0.25349 2.548,0.62 0.5399,0.8735 -1.4737,1.8246 -4.4746,2.11355 -3.5685,0.34362 -5.2881,1.318 -4.9706,2.81647 0.3052,1.43999 -0.45,1.93209 -2.0328,1.32469 -3.0397,-1.16642 -5.2061,1.57338 -2.2185,2.80558 1.2799,0.52785 0.6337,1.30948 -1.6586,2.00628 -2.0655,0.62784 -3.7554,1.805 -3.7554,2.61592 0,0.81091 -0.7954,1.47439 -1.7676,1.47439 -0.9721,0 -1.257,-0.82601 -0.6331,-1.83558 0.8058,-1.30373 0.1188,-1.29202 -2.3708,0.0404 -1.9279,1.03178 -5.3165,1.4214 -7.5301,0.86581 -2.2223,-0.55775 -4.5318,-0.18989 -5.1568,0.82136 -0.6226,1.00734 -1.8311,1.39941 -2.6857,0.87126 -0.8545,-0.52814 -1.5537,-0.2185 -1.5537,0.68809 0,0.90659 -1.1803,2.82861 -2.6228,4.27115 -2.3844,2.38437 -2.3175,2.62281 0.736,2.62281 1.8474,0 3.9019,0.87872 4.5657,1.9527 0.7985,1.29199 0.3149,1.61042 -1.4293,0.94111 -1.4499,-0.55638 -4.7652,-0.37304 -7.3673,0.40743 -3.4918,1.0473 -3.8567,1.46656 -1.3931,1.60049 2.6121,0.14199 2.1714,0.75672 -2.0262,2.8264 -4.9065,2.41922 -5.5932,2.41598 -8.0472,-0.038 -1.4756,-1.47562 -2.2001,-2.68294 -1.61,-2.68294 0.5902,0 -0.1142,-1.18717 -1.5652,-2.63815 -1.4509,-1.45098 -2.2113,-3.32867 -1.6897,-4.17265 0.5216,-0.84397 0.2155,-1.5345 -0.6801,-1.5345 -0.8957,0 -2.0095,0.93885 -2.4751,2.08633 -0.6538,1.61147 -1.214,1.56089 -2.4612,-0.22222 -1.2246,-1.75074 -1.9173,-0.94416 -2.8669,3.33812 -1.0843,4.88956 -1.4286,5.19909 -2.5677,2.30854 l -1.3155,-3.33812 -0.2837,3.33812 c -0.241,2.83563 -0.4849,2.71001 -1.62,-0.83453 -0.8909,-2.78177 -1.3918,-3.19903 -1.5027,-1.25179 -0.091,1.60647 -1.4808,2.93235 -3.0872,2.94641 -1.6494,0.0144 -2.1943,0.55934 -1.2518,1.2518 2.9863,2.19398 1.7642,6.18892 -2.5036,8.18418 -2.295,1.07292 -3.1325,2.01177 -1.8612,2.08632 1.4429,0.0846 0.8158,1.29612 -1.6691,3.22444 -5.9398,4.6093 -8.4947,5.0476 -13.7979,2.36705 -4.7588,-2.40541 -4.7986,-2.38515 -3.7235,1.89807 0.637,2.5384 0.3829,4.32942 -0.6143,4.32942 -0.9355,0 -1.7898,-0.56331 -1.8985,-1.25179 z m 14.2032,-19.48241 c -1.2057,-3.14218 -5.8133,-4.81624 -7.7968,-2.83278 -2.3847,2.38475 0.1554,5.20732 4.6863,5.20732 2.792,0 3.7431,-0.72606 3.1105,-2.37454 z m 41.677,-3.46717 c -0.5284,-1.37697 -1.2559,-2.50359 -1.6167,-2.50359 -0.3607,0 -0.6559,1.12662 -0.6559,2.50359 0,1.37698 0.7275,2.50359 1.6166,2.50359 0.8892,0 1.1844,-1.12661 0.656,-2.50359 z m 22.3112,-18.53352 c -0.5546,-0.55461 -1.9941,-0.61391 -3.199,-0.13177 -1.3315,0.53281 -0.936,0.92831 1.0084,1.00839 1.7595,0.0725 2.7452,-0.322 2.1906,-0.87662 z m 12.5528,-0.097 c -1.1475,-0.46301 -3.0252,-0.46301 -4.1727,0 -1.1475,0.46302 -0.2086,0.84186 2.0863,0.84186 2.295,0 3.2338,-0.37884 2.0864,-0.84186 z m 5.8069,-6.57924 c -0.5546,-0.55461 -1.9942,-0.61391 -3.199,-0.13177 -1.3315,0.53281 -0.936,0.92831 1.0084,1.00839 1.7594,0.0725 2.7452,-0.322 2.1906,-0.87662 z m 12.1354,-9.00597 c 0,-0.91798 -0.751,-1.66906 -1.669,-1.66906 -0.918,0 -1.6691,0.75108 -1.6691,1.66906 0,0.91798 0.7511,1.66906 1.6691,1.66906 0.918,0 1.669,-0.75108 1.669,-1.66906 z m 104.3163,-28.37402 c 0.5673,-0.91798 0.2361,-1.66906 -0.736,-1.66906 -0.9722,0 -1.7676,0.75108 -1.7676,1.66906 0,0.91798 0.3312,1.66906 0.736,1.66906 0.4048,0 1.2003,-0.75108 1.7676,-1.66906 z m -4.112,-35.81168 c -1.1094,-1.33676 -1.4667,-3.40222 -0.794,-4.58991 0.9508,-1.67867 0.7476,-1.71993 -0.9125,-0.1853 -2.401,2.21958 -1.157,7.20569 1.7978,7.20569 1.4133,0 1.389,-0.64689 -0.091,-2.43048 z m 4.9465,-0.90764 c 0,-0.91798 -0.7954,-1.66906 -1.7675,-1.66906 -0.9722,0 -1.3034,0.75108 -0.7361,1.66906 0.5674,0.91798 1.3628,1.66906 1.7676,1.66906 0.4048,0 0.736,-0.75108 0.736,-1.66906 z"
       id="path9"
       transform="scale(0.26458333)" /><path
       style="opacity:0.382979;fill:#f9f9f9;stroke:none;stroke-width:25.233;stroke-dasharray:none"
       d="m -2718.728,884.45289 c -17.9165,-9.51164 -37.9,-22.31788 -49.8917,-31.97268 -5.745,-4.62537 -6.7766,-6.22657 -5.2201,-8.10203 1.0669,-1.28558 1.2846,-2.36025 0.4837,-2.38816 -0.8009,-0.0279 -0.1358,-0.81964 1.4779,-1.75939 1.6138,-0.93976 3.6764,-1.24987 4.5837,-0.68915 3.6004,2.22522 8.8182,2.25779 11.0073,0.0687 1.7838,-1.78381 1.8377,-2.49854 0.237,-3.14525 -1.5751,-0.63634 -1.5479,-0.86846 0.1134,-0.96865 1.2307,-0.0742 1.6578,-0.9845 0.978,-2.08446 -0.8115,-1.31298 -0.297,-1.60354 1.5705,-0.88692 1.5276,0.58618 2.7791,0.52605 2.7812,-0.13362 0,-0.65968 2.258,-1.27952 5.013,-1.37743 4.3192,-0.1535 4.721,0.17801 2.9171,2.40671 -1.6659,2.05813 -1.6671,2.32937 -0.01,1.33131 1.1475,-0.68938 2.0864,-0.45802 2.0864,0.51414 0,0.97216 0.7275,1.76756 1.6166,1.76756 0.8892,0 1.1241,-1.31438 0.5221,-2.92085 -0.9586,-2.55782 -0.7447,-2.63614 1.7214,-0.63016 2.4262,1.97353 2.8161,1.91576 2.8161,-0.41727 0,-1.48938 -0.8762,-2.70796 -1.9472,-2.70796 -2.8744,0 -0.5228,-1.844 3.0461,-2.38854 1.6906,-0.25795 7.2047,2.17163 12.2536,5.39908 20.5085,13.10975 73.8973,37.0469 82.6285,37.0469 1.9696,0 2.264,0.70662 1.135,2.72398 -1.7784,3.17779 -13.0267,7.4298 -16.3158,6.16762 -1.2409,-0.47618 -4.2847,0.7298 -6.7639,2.67995 -3.0889,2.42973 -5.0481,3.00533 -6.2246,1.8288 -0.9443,-0.94431 -2.8811,-1.65763 -4.304,-1.58516 -1.7191,0.0876 -1.8871,0.4142 -0.5007,0.97362 1.1475,0.46302 2.0863,1.50677 2.0863,2.31944 0,0.81267 -1.0679,1.06779 -2.3731,0.56692 -1.3053,-0.50087 -4.1218,0.0406 -6.259,1.20329 -4.5651,2.48353 -14.4278,3.32804 -15.6561,1.34059 -0.47,-0.76046 -1.9528,-0.96122 -3.2951,-0.44613 -1.3423,0.51509 -2.0736,1.5302 -1.6252,2.2558 0.4484,0.72561 -0.1953,1.70711 -1.4306,2.18112 -1.2352,0.47402 -9.9031,-3.20327 -19.2619,-8.17174 z m 42.3903,-0.68562 c 0.5673,-0.91798 0.2361,-1.66906 -0.736,-1.66906 -0.9722,0 -1.7676,0.75108 -1.7676,1.66906 0,0.91799 0.3312,1.66906 0.736,1.66906 0.4048,0 1.2002,-0.75107 1.7676,-1.66906 z m 25.8553,-8.67752 c -2.4671,-0.91265 -4.5482,-0.77364 -5.6923,0.38023 -1.2976,1.30872 -0.9842,1.50696 1.1175,0.70684 1.6606,-0.63221 2.9208,-0.33741 2.9208,0.68326 0,0.98739 1.2472,1.31668 2.7715,0.73175 2.321,-0.89068 2.1395,-1.29726 -1.1175,-2.50208 z"
       id="path10"
       transform="scale(0.26458333)" /><path
       style="opacity:0.529981;fill:#f9f9f9;stroke:none;stroke-width:25.233;stroke-dasharray:none"
       d="m -2576.1941,805.31314 c -17.1362,-1.53705 -28.9147,-4.04827 -47.9945,-10.2326 -26.6489,-8.63775 -50.9289,-21.47123 -40.622,-21.47123 1.4139,0 2.0436,-1.16158 1.5836,-2.92085 -0.7754,-2.96513 0.4981,-3.34522 13.177,-3.93263 2.5244,-0.11696 4.5899,-0.79043 4.5899,-1.49659 0,-1.9422 10.7438,-6.63561 16.1212,-7.04248 2.6081,-0.19734 5.7345,-1.32121 6.9476,-2.49749 1.213,-1.17627 3.9852,-2.13868 6.1605,-2.13868 4.5082,0 6.8853,-2.56289 3.745,-4.03777 -1.1532,-0.54161 -0.054,-0.71426 2.4427,-0.38366 2.4967,0.33061 4.1909,0.0372 3.765,-0.65196 -0.6957,-1.12565 3.8112,-3.95779 5.8826,-3.69666 0.459,0.0579 1.803,-0.94951 2.9867,-2.23861 1.1836,-1.2891 1.6933,-2.34382 1.1325,-2.34382 -0.5607,0 0.1071,-1.12661 1.4841,-2.50359 1.377,-1.37697 3.6395,-2.50359 5.0279,-2.50359 1.3883,0 2.9885,-0.75107 3.5558,-1.66906 0.5674,-0.91798 1.8303,-1.66906 2.8065,-1.66906 1.1858,0 1.139,0.76622 -0.1411,2.30868 -1.4882,1.79315 -1.2852,2.55075 0.9092,3.39283 1.5539,0.59629 3.601,0.30847 4.5491,-0.63961 1.1857,-1.18566 0.9683,-1.74224 -0.6964,-1.78292 -1.3493,-0.033 -0.5738,-1.11457 1.7525,-2.44445 3.7472,-2.14209 3.8323,-2.40221 0.8346,-2.55119 -2.5952,-0.12896 -2.1308,-0.76677 2.0863,-2.86554 2.9834,-1.48482 5.4244,-3.31447 5.4244,-4.06591 0,-0.75144 0.9903,-1.36625 2.2007,-1.36625 5.3516,0 19.9356,-5.37373 17.9367,-6.60911 -1.3767,-0.85085 -0.2819,-1.57685 3.1339,-2.07818 2.8873,-0.42377 5.6596,-0.10739 6.1605,0.70308 0.5009,0.81047 2.3056,-0.1348 4.0105,-2.10059 1.705,-1.9658 3.8966,-3.08179 4.8704,-2.47998 0.9737,0.60181 2.9708,-0.10623 4.438,-1.57342 2.0591,-2.05913 3.1984,-2.22715 4.9944,-0.73658 1.6269,1.35025 2.3267,1.38047 2.3267,0.10047 0,-2.4589 8.5897,-6.67469 11.4985,-5.6434 1.412,0.50061 1.8647,0.0875 1.1577,-1.05644 -0.6823,-1.10397 0.7156,-2.73353 3.3905,-3.95228 3.4546,-1.57403 4.7093,-1.6004 5.2063,-0.10942 0.872,2.61614 8.7446,-4.20387 8.9219,-7.72907 0.087,-1.72187 0.4203,-1.90475 0.9736,-0.53354 0.463,1.14748 1.9502,2.08632 3.3049,2.08632 1.3546,0 2.1623,-0.5633 1.7947,-1.25179 -0.5941,-1.11284 3.9543,-6.42542 6.4304,-7.51077 0.5235,-0.2295 1.6484,0.82727 2.4996,2.34836 0.9942,1.77646 2.8923,2.47088 5.3071,1.94154 3.116,-0.68307 3.3309,-0.49196 1.2557,1.11682 -2.2254,1.72526 -2.2254,1.86167 0,1.22766 1.377,-0.39229 2.445,-2.31755 2.3734,-4.27834 -0.1464,-4.00759 4.1782,-6.07113 9.31,-4.44237 2.1805,0.69205 3.347,0.29693 3.3637,-1.13932 0.019,-1.61551 0.4548,-1.53465 1.6435,0.30479 1.1757,1.81922 1.6249,1.90636 1.6435,0.31876 0.014,-1.20165 0.7889,-1.71306 1.7219,-1.13646 0.9329,0.5766 1.2641,1.74754 0.736,2.60209 -0.5282,0.85455 -0.1649,1.55373 0.8073,1.55373 0.9721,0 1.7675,-1.79733 1.7675,-3.99408 0,-5.28643 3.614,-6.43208 10.808,-3.42621 5.4352,2.27094 5.8846,2.23402 5.9082,-0.48534 0.019,-2.24911 0.3584,-2.41821 1.4368,-0.71699 1.1362,1.79247 1.6089,1.71116 2.4256,-0.41726 0.558,-1.45395 2.1382,-2.64354 3.5117,-2.64354 1.3735,0 3.3621,-1.61604 4.4192,-3.5912 1.5517,-2.89932 1.4826,-3.42616 -0.3585,-2.73456 -1.2543,0.47115 -3.7827,0.26229 -5.6186,-0.46414 -2.5537,-1.01041 -1.8216,-1.34834 3.1155,-1.43809 5.5617,-0.10109 6.3381,0.32423 5.6182,3.07731 -0.7214,2.75852 -0.048,3.12145 4.9316,2.65863 4.4082,-0.4097 5.5547,0.0174 4.8658,1.81256 -0.4957,1.2917 -0.1737,2.34855 0.7154,2.34855 0.8892,0 1.6167,-1.14092 1.6167,-2.53539 0,-1.9303 1.0954,-2.26256 4.5899,-1.3922 4.0067,0.99792 4.3194,0.81463 2.461,-1.44235 -1.7476,-2.12248 -1.6825,-2.75683 0.3638,-3.54207 1.371,-0.52611 2.9367,-0.23828 3.4792,0.63961 1.7253,2.7915 4.1277,1.72031 4.1277,-1.84046 0,-1.89014 0.751,-2.97243 1.669,-2.40509 0.918,0.56735 1.6691,0.26508 1.6691,-0.67169 0,-0.93678 2.885,-2.48009 6.4112,-3.42958 3.5261,-0.9495 7.7734,-3.23168 9.4385,-5.07152 1.665,-1.83984 4.0818,-3.34516 5.3707,-3.34516 1.2889,0 1.917,-0.68996 1.3958,-1.53324 -0.5212,-0.84329 1.3122,-2.02958 4.0742,-2.63621 3.0633,-0.67282 5.0217,-2.15778 5.0217,-3.80774 0,-2.10373 0.4451,-2.25971 2.0029,-0.70192 2.8787,2.87874 4.7462,2.46581 3.5028,-0.77452 -0.7166,-1.86749 -0.4261,-2.38202 0.8869,-1.57056 1.074,0.66376 1.9527,2.35172 1.9527,3.75101 0,4.23909 4.1353,1.48727 4.6844,-3.1172 0.5143,-4.31338 6.0868,-7.45745 7.9304,-4.47447 0.5141,0.83181 1.8292,1.50087 2.9225,1.48681 1.2265,-0.0158 1.029,-0.71043 -0.5157,-1.81384 -2.0112,-1.43652 -1.7645,-1.62627 1.254,-0.96463 2.0668,0.45302 3.3689,0.19453 2.8937,-0.57441 -1.0138,-1.6403 2.2843,-4.05902 5.8666,-4.30247 7.5004,-0.50973 8.4547,-0.80621 7.5108,-2.33345 -0.5674,-0.91798 -0.2126,-1.66906 0.7884,-1.66906 4.0636,0 3.5714,6.02888 -1.6127,19.75328 -22.7056,60.1103 -65.9961,108.43731 -123.3587,137.71038 -43.9026,22.40426 -90.1208,30.85573 -142.8666,26.12463 z m -30.0549,-51.71343 c 0.5847,-0.94612 -0.085,-1.22594 -1.5706,-0.65596 -2.8915,1.10958 -3.4205,2.3059 -1.0197,2.3059 0.8638,0 2.0294,-0.74247 2.5903,-1.64994 z m 45.4589,-24.39435 c -0.5546,-0.55461 -1.9942,-0.61391 -3.199,-0.13177 -1.3315,0.53281 -0.936,0.92831 1.0084,1.0084 1.7594,0.0725 2.7452,-0.32201 2.1906,-0.87663 z m 29.6809,-17.0528 c -1.3263,-1.32625 -4.1959,1.6845 -3.177,3.33318 0.693,1.12139 1.5532,0.95068 2.4401,-0.48426 0.7533,-1.2189 1.0849,-2.50091 0.7369,-2.84892 z m 17.5048,-4.56962 c 0,-1.43115 -0.7633,-2.13033 -1.6963,-1.55373 -0.9329,0.5766 -1.2641,1.74754 -0.736,2.60209 1.4308,2.31506 2.4323,1.88339 2.4323,-1.04836 z m 13.3525,-6.47923 c 0,-0.40482 -0.7511,-1.20022 -1.6691,-1.76757 -0.9179,-0.56734 -1.669,-0.23613 -1.669,0.73603 0,0.97216 0.7511,1.76756 1.669,1.76756 0.918,0 1.6691,-0.33121 1.6691,-0.73602 z"
       id="path11"
       transform="scale(0.26458333)" /><path
       style="opacity:0.382979;fill:#f9f9f9;stroke:none;stroke-width:25.233;stroke-dasharray:none"
       d="m -2277.0151,747.46803 c 1.1475,-0.46302 2.0863,-1.76426 2.0863,-2.89164 0,-1.12738 1.3144,-3.54608 2.9209,-5.3749 8.5157,-9.69432 31.8449,-58.11666 39.3099,-81.59185 5.0302,-15.81838 10.4206,-37.0492 11.8097,-46.51395 0.4455,-3.03521 12.7219,-10.49814 12.7219,-7.73374 0,0.91977 -0.8762,1.6723 -1.9472,1.6723 -1.071,0 -1.5109,0.43639 -0.9775,0.96976 0.5334,0.53337 2.5362,0.1314 4.4508,-0.89325 2.9212,-1.56338 3.4893,-1.3838 3.5318,1.11656 0.045,2.66867 0.2587,2.63125 2.0428,-0.35854 1.0956,-1.83596 2.0116,-4.0266 2.0356,-4.86809 0.066,-2.30684 4.2162,-3.22641 4.2162,-0.93414 0,1.0927 1.1266,1.5544 2.5036,1.02601 1.377,-0.5284 2.5036,-0.18889 2.5036,0.75446 0,0.94335 0.8023,1.21934 1.7828,0.61332 0.9806,-0.60602 1.3476,-2.23613 0.8156,-3.62246 -0.6571,-1.7123 -0.1974,-2.2252 1.4333,-1.59944 1.3202,0.50663 3.2915,-0.15255 4.3807,-1.46485 1.0891,-1.3123 2.582,-2.01405 3.3176,-1.55945 0.7355,0.4546 1.7177,-0.11698 2.1827,-1.27017 1.6374,-4.0614 1.0625,4.75635 -1.3563,20.80273 -2.7762,18.41776 -7.367,37.55781 -13.8242,57.63567 -3.5408,11.00976 -4.9826,13.59714 -7.1869,12.89753 -1.5166,-0.48136 -3.7065,0.26838 -4.8665,1.66608 -1.16,1.3977 -1.4538,2.56789 -0.6529,2.60042 3.2075,0.13028 -7.1754,4.84284 -11.0618,5.02066 -2.295,0.105 -3.2186,0.57483 -2.0525,1.04406 2.2704,0.91354 -4.4648,7.22861 -7.7094,7.22861 -3.0524,0 -3.762,3.10371 -1.5608,6.82642 1.7049,2.88342 1.7165,3.77849 0.057,4.37963 -4.1624,1.5074 -1.9503,3.81549 3.6569,3.81549 6.1723,0 9.4362,-2.84652 5.8238,-5.07911 -1.5717,-0.9714 -0.8049,-1.7212 2.6462,-2.58738 4.1171,-1.03332 4.3774,-1.38865 1.7041,-2.3264 -2.5916,-0.90906 -2.7028,-1.28046 -0.6224,-2.07877 3.5808,-1.37408 7.0794,1.22502 5.8747,4.3643 -0.6231,1.62396 -2.1657,2.28421 -3.9986,1.71149 -2.8439,-0.88864 -2.8452,-0.84333 -0.028,0.96525 1.6257,1.04372 2.4707,2.68277 1.8777,3.64234 -0.7019,1.13557 -1.5793,0.95408 -2.5132,-0.51985 -1.0612,-1.67482 -1.4415,-1.33672 -1.4604,1.29835 -0.036,5.07375 -16.6029,13.0861 -19.3342,9.35091 -1.5016,-2.05361 -2.1894,-1.56932 -4.0085,2.82227 -1.4149,3.41597 -3.0322,4.98033 -4.5476,4.39883 -1.4232,-0.54612 -1.9052,-0.17997 -1.2209,0.92732 0.7777,1.25823 -1.0199,1.58132 -5.755,1.03437 -6.603,-0.76271 -9.1789,0.74556 -4.7995,2.81023 1.1474,0.54098 -0.167,0.59205 -2.9209,0.11349 -4.8524,-0.84322 -4.904,-0.78548 -1.6691,1.86766 3.3183,2.72151 3.3171,2.73284 -0.2056,1.90625 -2.9095,-0.6827 -3.4064,-0.19724 -2.7761,2.71227 0.4719,2.1781 0.2287,2.79986 -0.631,1.61338 -1.0483,-1.44679 -3.0708,-1.34855 -8.0728,0.39214 -6.1572,2.14267 -12.6799,3.18571 -7.9259,1.26742 z m 32.1294,-15.39055 c 0,-1.9177 -6.7588,-3.6788 -8.9414,-2.32983 -0.9341,0.5773 -0.2467,1.60553 1.5414,2.30577 4.4875,1.7573 7.4,1.76676 7.4,0.0241 z m 18.3597,-8.53997 c 0,-0.91798 -0.7955,-1.66906 -1.7676,-1.66906 -0.9722,0 -1.3034,0.75108 -0.736,1.66906 0.5673,0.91799 1.3627,1.66906 1.7675,1.66906 0.4048,0 0.7361,-0.75107 0.7361,-1.66906 z m 7.8932,-2.67745 c -0.5546,-0.55461 -1.9942,-0.61391 -3.199,-0.13177 -1.3315,0.53281 -0.936,0.92831 1.0084,1.0084 1.7594,0.0725 2.7452,-0.32201 2.1906,-0.87663 z m 11.0495,-38.26797 c -1.324,-3.45013 -2.2521,-3.04357 -2.2521,0.98649 0,1.89014 0.7182,2.9927 1.5961,2.45013 0.8779,-0.54256 1.1731,-2.08904 0.656,-3.43662 z"
       id="path12"
       transform="scale(0.26458333)" /><path
       style="opacity:0.382979;fill:#f9f9f9;stroke:none;stroke-width:12.6165;stroke-dasharray:none"
       d="m -2274.2507,766.78026 c 0.6024,-0.24107 1.3222,-0.21142 1.5995,0.0659 0.2773,0.27731 -0.2156,0.47455 -1.0953,0.43831 -0.9722,-0.04 -1.17,-0.23779 -0.5042,-0.50419 z"
       id="path13"
       transform="scale(0.26458333)" /><path
       style="opacity:0.382979;fill:#f9f9f9;stroke:none;stroke-width:12.6165;stroke-dasharray:none"
       d="m -2292.6626,775.97748 c 0.5738,-0.23151 1.5126,-0.23151 2.0864,0 0.5737,0.2315 0.1043,0.42092 -1.0432,0.42092 -1.1475,0 -1.6169,-0.18942 -1.0432,-0.42092 z"
       id="path14"
       transform="scale(0.26458333)" /><path
       style="opacity:0.382979;fill:#f9f9f9;stroke:none;stroke-width:12.6165;stroke-dasharray:none"
       d="m -2282.106,803.43098 c -0.505,-0.33721 -1.3632,-1.45808 -1.9071,-2.49081 -1.1028,-2.09431 -2.7372,-2.32456 -6.6983,-0.9437 -1.8191,0.63412 -2.5287,1.32634 -2.2103,2.15606 0.285,0.7428 0.06,1.08726 -0.5748,0.87833 -1.6054,-0.52869 -1.837,-3.96838 -0.2673,-3.96838 0.7205,0 1.3099,-0.37111 1.3099,-0.82469 0,-0.45358 -0.8378,-0.73524 -1.8618,-0.6259 -1.4663,0.15657 -1.8779,-0.24438 -1.9375,-1.88753 -0.042,-1.14748 -0.3469,-2.90342 -0.6784,-3.90208 -0.4274,-1.28763 -0.1904,-2.04645 0.8146,-2.60892 1.0019,-0.56064 1.2194,-1.25157 0.742,-2.35689 -0.6239,-1.44465 -0.7019,-1.45252 -1.0246,-0.10331 -0.4152,1.73569 -0.7978,1.80381 -2.3439,0.41727 -3.4569,-3.10006 -3.7248,-3.24092 -3.7248,-1.95858 0,0.8526 -1.0752,1.31641 -3.4617,1.49333 -4.3505,0.32249 -6.1916,2.61245 -3.6318,4.51713 0.918,0.68305 2.6079,1.18457 3.7554,1.11449 3.3091,-0.2021 3.8644,0.0367 2.2584,0.97128 -0.9359,0.54456 -1.3181,1.43476 -1.0198,2.37477 0.3341,1.05266 -0.043,1.63963 -1.2562,1.95699 -1.3716,0.35866 -1.6814,0.1077 -1.4839,-1.20187 0.1941,-1.28657 -0.6796,-2.04824 -3.9229,-3.42006 -2.295,-0.97068 -4.2603,-1.81653 -4.3673,-1.87967 -0.107,-0.0631 3.5806,-4.03299 8.1947,-8.82187 5.5789,-5.7902 8.5446,-8.32265 8.8529,-7.55958 0.9586,2.37319 3.4756,4.15141 5.2276,3.69326 1.0508,-0.27481 2.4055,0.12579 3.3666,0.9956 1.2767,1.15533 2.2605,1.31347 4.7711,0.76693 1.7396,-0.37868 3.6574,-0.64862 4.2617,-0.59986 0.6043,0.0488 0.9073,-0.10281 0.6733,-0.33683 -0.234,-0.23402 0.492,-1.87893 1.6134,-3.65535 2.4253,-3.84183 2.4632,-4.09755 0.6083,-4.09755 -1.3396,0 -1.3377,-0.0929 0.03,-1.46043 1.2795,-1.27921 1.5634,-1.3051 2.2878,-0.20863 1.1909,1.80266 0.2143,5.91475 -1.7279,7.27508 -2.125,1.48843 -2.155,3.0626 -0.048,2.51157 0.9275,-0.24253 1.8024,0.0654 2.0548,0.72313 0.2637,0.68727 1.0077,0.92748 1.8598,0.60049 0.9624,-0.3693 1.2254,-0.22973 0.8159,0.43289 -0.3759,0.60821 0.2565,1.30522 1.6728,1.84369 2.4401,0.92773 4.6023,3.29677 3.959,4.33771 -0.7006,1.1336 -1.9631,0.67128 -1.9631,-0.71888 0,-1.10037 -0.2312,-1.16211 -1.2342,-0.32964 -0.8967,0.74414 -1.0108,1.44193 -0.4173,2.55092 1.1369,2.12426 1.0192,2.84304 -0.2878,1.75833 -1.3462,-1.11732 -3.1637,0.32615 -2.5207,2.00197 0.2293,0.59736 -0.3927,1.51933 -1.3821,2.04884 -1.4199,0.75991 -2.3831,0.68549 -4.5721,-0.35327 -1.5253,-0.72379 -3.4676,-1.28634 -4.3162,-1.25011 -1.1142,0.0476 -0.9329,0.28958 0.6526,0.87092 1.9829,0.72711 2.1712,1.16507 1.9447,4.52403 -0.1869,2.77358 0.051,3.719 0.934,3.719 0.6516,0 1.1848,0.37554 1.1848,0.83453 0,0.97195 -1.6784,1.08136 -3.0046,0.19585 z m -4.0301,-7.30752 c -1.7551,-1.50942 -2.6967,-1.84638 -3.3381,-1.1946 -1.1181,1.13616 1.5482,3.29956 4.0647,3.29807 1.5425,-9.2e-4 1.4682,-0.21593 -0.7266,-2.10347 z m -6.3011,-4.17465 c 0.5806,-0.69958 0.8306,-1.49705 0.5555,-1.77216 -0.8546,-0.85461 -3.0758,0.4208 -3.0758,1.76613 0,1.63453 1.1665,1.63732 2.5203,0.006 z"
       id="path15"
       transform="scale(0.26458333)" /><path
       style="opacity:0.382979;fill:#f9f9f9;stroke:none;stroke-width:4.46061;stroke-dasharray:none"
       d="m -2275.4732,780.17737 c -0.3813,-0.51519 -0.7803,-0.65286 -1.8922,-0.65286 -0.8788,0 -1.4566,-0.14149 -1.5354,-0.37602 -0.07,-0.20681 0.4783,-0.93706 1.2174,-1.62278 0.7391,-0.68572 1.6114,-1.84424 1.9383,-2.57449 1.0337,-2.30858 0.6474,-5.59566 -0.6878,-5.8528 -0.328,-0.0632 -1.0256,0.35911 -1.7629,1.06721 -0.671,0.64447 -1.5852,1.25715 -2.0314,1.36152 -0.4463,0.10436 -0.8114,0.38101 -0.8114,0.61477 0,0.63957 -1.5246,1.92415 -2.2836,1.92415 -0.5162,0 -0.6669,-0.16815 -0.6669,-0.74395 0,-0.75013 -0.066,-0.79668 -2.2867,-1.62535 -0.5274,-0.19676 -0.9589,-0.5408 -0.9589,-0.76453 0,-0.44066 -0.7545,-0.5618 -1.0022,-0.16092 -0.3147,0.50911 -1.9908,-0.0163 -2.3138,-0.72532 -0.585,-1.28386 -2.5656,-0.60639 -2.2094,0.75572 0.131,0.50063 -0.053,0.59988 -1.4331,0.77228 -1.4551,0.18181 -1.5584,0.24444 -1.2751,0.77371 0.3625,0.67736 -0.064,1.33953 -1.1221,1.74179 -0.3718,0.14136 -0.6718,0.42627 -0.6666,0.63313 0.021,0.84659 0.8842,1.39059 3.395,2.13975 1.4543,0.43393 3.9282,1.19067 5.4977,1.68163 3.3649,1.05262 4.7482,0.96956 6.2821,-0.37719 0.5357,-0.47036 1.1622,-0.85519 1.3923,-0.85519 0.2302,0 0.5944,-0.16597 0.8094,-0.36881 0.215,-0.20285 0.3405,-0.23604 0.2788,-0.0738 -0.062,0.16228 -0.2974,0.77449 -0.5239,1.36047 l -0.4118,1.06542 -2.9798,0.48455 c -4.2519,0.6914 -4.8531,0.64691 -6.3742,-0.47173 -1.1045,-0.81225 -1.5641,-0.95951 -3.0859,-0.98878 -2.2839,-0.0439 -3.4433,-0.65001 -4.7665,-2.49186 -0.9214,-1.28259 -1.1209,-1.42089 -1.645,-1.14041 -1.4738,0.78873 -0.8806,-0.42077 1.6221,-3.30738 3.7108,-4.27994 3.2116,-3.95697 6.2538,-4.04648 l 2.6554,-0.0781 1.354,-1.46101 c 0.7447,-0.80356 1.2869,-1.52815 1.2048,-1.6102 -0.082,-0.082 0.2452,-0.14917 0.7273,-0.14917 1.3949,0 2.6868,-1.55387 2.8107,-3.38082 l 0.099,-1.46299 -1.1802,-0.209 c -0.6491,-0.11495 -1.5507,-0.35157 -2.0035,-0.52582 -0.7082,-0.27254 -0.7789,-0.39966 -0.5059,-0.9097 0.1745,-0.32609 0.5118,-0.59289 0.7495,-0.59289 0.2377,0 0.4322,-0.19484 0.4322,-0.43298 0,-0.31628 3.9923,-5.96131 4.8797,-6.89986 0.054,-0.0572 0.9784,0.18875 2.054,0.54667 1.0755,0.35791 2.0234,0.58284 2.1064,0.49984 0.083,-0.083 -0.1578,-0.24674 -0.5352,-0.36387 -0.3773,-0.11712 -1.2468,-0.47413 -1.9321,-0.79333 -1.2376,-0.57644 -1.2426,-0.58514 -0.7376,-1.27997 0.2796,-0.38477 0.7661,-0.70376 1.0811,-0.70886 0.5667,-0.009 0.5667,-0.005 5e-4,0.40918 -0.9574,0.70005 -0.3552,0.77529 2.25,0.2811 1.3682,-0.25955 2.7532,-0.50664 3.0778,-0.54909 0.3246,-0.0425 1.0622,-0.28382 1.6391,-0.53637 0.577,-0.25255 1.4072,-0.54908 1.845,-0.65896 l 0.796,-0.19979 -0.8569,0.91738 c -0.6103,0.65334 -1.1262,0.91738 -1.7924,0.91738 -0.5144,0 -1.1475,0.21221 -1.4069,0.47158 -0.3797,0.37971 -0.8499,0.43495 -2.4131,0.28352 l -1.9415,-0.18807 1.0327,0.89889 1.0326,0.89888 -0.8196,0.61853 c -0.4508,0.34019 -1.0093,0.98517 -1.241,1.43327 -0.3166,0.61227 -0.7136,0.86148 -1.5976,1.00283 -1.4571,0.23301 -1.6989,0.58286 -0.9325,1.34929 0.7099,0.70994 0.5326,1.37348 -0.4317,1.61551 -0.6898,0.17314 -0.6931,0.19067 -0.1999,1.06006 0.2758,0.48621 0.7338,0.95897 1.0176,1.05059 0.4218,0.13614 0.4567,0.27765 0.1909,0.77439 -0.6242,1.16624 1.0774,1.51697 2.743,0.56541 0.5367,-0.3066 1.4405,-0.64317 2.0085,-0.74794 0.8577,-0.15822 1.2575,-0.52084 2.3604,-2.14097 l 1.3277,-1.9505 2.1238,-0.0565 c 1.9778,-0.0526 2.1038,-0.0192 1.8337,0.48554 -0.1596,0.29811 -0.4182,0.54201 -0.5748,0.54201 -0.1566,0 -0.2847,0.37373 -0.2847,0.83051 0,1.00146 1.0182,1.57156 4.0502,2.2678 1.0991,0.25239 2.2639,0.53647 2.5885,0.63129 0.4066,0.11878 0.4983,0.076 0.295,-0.13767 -0.1622,-0.17053 -1.6227,-0.66052 -3.2455,-1.08886 -1.6228,-0.42834 -3.0699,-0.8944 -3.2157,-1.03568 -0.3068,-0.29728 0.5296,-1.7126 1.1537,-1.95207 0.2263,-0.0869 1.1099,0.0468 1.9636,0.29707 0.8537,0.25024 1.6015,0.40558 1.6619,0.3452 0.2281,-0.22811 -1.132,-0.7545 -2.3426,-0.9066 -1.3696,-0.17208 -1.9123,-0.43119 -0.9031,-0.43119 0.3459,0 1.0651,-0.37887 1.5981,-0.84193 0.8499,-0.73831 1.8679,-1.15897 3.1083,-1.28446 0.2029,-0.0205 0.3036,-0.10255 0.2239,-0.18228 -0.2476,-0.24762 0.4864,-0.93689 0.9977,-0.93689 0.2671,0 0.9514,-0.31655 1.5207,-0.70344 l 1.0352,-0.70344 0.832,0.66334 0.8319,0.66334 -1.1175,1.58912 c -0.6146,0.87401 -1.1461,1.6321 -1.1811,1.68463 -0.035,0.0525 -0.4427,-0.1005 -0.906,-0.34008 -0.7462,-0.3859 -0.943,-0.38394 -1.724,0.0172 -0.4848,0.24902 -0.9254,0.49012 -0.9789,0.53577 -0.053,0.0456 0.1239,0.4206 0.3942,0.83324 0.2704,0.41264 0.4023,0.89471 0.2932,1.07126 -0.1091,0.17655 0.021,0.65623 0.2898,1.06596 0.273,0.41671 0.4467,1.15852 0.3942,1.68356 -0.086,0.86257 0.026,0.99888 1.3814,1.68253 1.1297,0.5697 1.4516,0.88066 1.3742,1.32773 -0.056,0.3211 -0.122,0.71434 -0.1475,0.87388 -0.028,0.17652 1.0879,0.26916 2.8515,0.23667 3.0007,-0.0553 4.3307,0.21365 4.3307,0.87564 0,0.21137 0.2837,0.62716 0.6303,0.92397 0.5111,0.43758 0.5529,0.58867 0.2213,0.79868 -0.2249,0.14246 -0.7663,0.26105 -1.203,0.26354 -1.179,0.007 -1.27,0.49384 -0.2776,1.48624 l 0.8851,0.88509 -3.0048,-0.12642 c -1.6526,-0.0695 -3.1103,-0.13735 -3.2394,-0.15072 -0.1291,-0.0134 -0.1475,-0.48902 -0.041,-1.057 0.2278,-1.2145 -0.01,-1.28915 -1.036,-0.32819 -0.8049,0.75221 -2.0815,1.2735 -2.0815,0.84993 0,-0.14062 -0.4723,-0.42645 -1.0496,-0.63519 -0.6347,-0.22951 -1.1584,-0.66583 -1.3249,-1.10383 -0.23,-0.60485 -0.37,-0.67368 -0.8489,-0.41737 -0.3154,0.16881 -1.0137,0.29644 -1.5518,0.28363 -0.5381,-0.0128 -0.8111,-0.0907 -0.6067,-0.17306 0.2044,-0.0824 0.7756,-0.55369 1.2693,-1.04739 0.8163,-0.8163 1.0193,-0.88095 2.2406,-0.71355 2.0038,0.27466 2.9205,0.81087 2.8254,1.65267 -0.075,0.66401 -0.05,0.675 0.4658,0.20781 1.0371,-0.93862 3.8253,-0.25244 3.4068,0.83842 -0.1071,0.27908 0.1114,0.53557 0.6216,0.72955 1.1563,0.4396 1.6089,0.34225 0.7011,-0.1508 -0.5621,-0.30531 -0.7416,-0.59208 -0.6322,-1.01029 0.085,-0.32498 -0.058,-0.79429 -0.3215,-1.05819 -0.2608,-0.26083 -0.4742,-0.6639 -0.4742,-0.89573 0,-0.54814 -0.4211,-0.53811 -0.8852,0.0211 -0.202,0.24341 -0.6671,0.44257 -1.0337,0.44257 -0.7283,0 -4.2688,-1.23247 -5.4752,-1.90592 -0.677,-0.37793 -0.8454,-0.36235 -1.6228,0.15006 -0.477,0.31447 -1.0844,0.57264 -1.3497,0.57371 -0.2654,10e-4 -0.7016,0.33641 -0.9694,0.7452 -0.4673,0.71313 -0.4597,0.75528 0.1873,1.03975 0.5486,0.24119 0.4498,0.26851 -0.5294,0.14644 -0.7978,-0.0995 -1.3948,-0.006 -1.7703,0.27859 -0.3116,0.23576 -0.9085,0.43288 -1.3265,0.43804 -0.7738,0.01 -1.6962,0.80749 -2.3102,1.99832 -0.4334,0.84079 0.2537,2.3089 1.3048,2.78782 0.3928,0.17897 0.6314,0.45927 0.5303,0.6229 -0.1017,0.16451 -0.038,0.20713 0.1432,0.0953 0.1799,-0.11118 0.6409,-0.12338 1.0245,-0.0271 0.5703,0.14315 0.675,0.32758 0.5744,1.01255 -0.094,0.64039 0.015,0.88139 0.4644,1.02391 0.3641,0.11555 0.636,0.51906 0.7157,1.06183 0.1211,0.82508 -0.1414,1.17187 -0.4765,0.62959 -0.2531,-0.40954 -2.0604,-0.011 -2.6236,0.57853 -0.2903,0.30387 -0.7186,0.55248 -0.9518,0.55248 -0.2331,0 -0.8468,0.4647 -1.3636,1.03268 -0.5169,0.56797 -1.1508,1.03471 -1.4087,1.03719 -0.7905,0.008 -1.306,0.4909 -1.099,1.03035 0.1791,0.46678 0.2474,0.469 0.9178,0.0298 0.7695,-0.50425 1.9252,-0.64042 1.9252,-0.22685 0,0.37397 -1.398,0.93396 -2.3006,0.9215 -0.4714,-0.007 -0.995,-0.27794 -1.2806,-0.66386 z m -1.7297,-1.69592 c 0,-0.51182 -0.088,-0.5532 -0.5984,-0.28025 -0.6383,0.34162 -0.5323,0.88073 0.1732,0.88073 0.2338,0 0.4252,-0.27021 0.4252,-0.60048 z m 2.2128,-0.28467 c 0.1003,-0.16228 0.042,-0.29505 -0.1301,-0.29505 -0.1718,0 -0.3124,0.13277 -0.3124,0.29505 0,0.16228 0.059,0.29505 0.1301,0.29505 0.071,0 0.2121,-0.13277 0.3124,-0.29505 z m 3.2224,-2.33446 c -0.1669,-0.16685 -0.9898,0.91141 -0.9935,1.30178 0,0.16228 0.2507,-0.0349 0.5605,-0.43816 0.3099,-0.40327 0.5047,-0.7919 0.433,-0.86362 z m -1.8946,-0.17347 c 0.3008,-0.36247 0.2806,-0.44258 -0.1114,-0.44258 -0.2633,0 -0.4787,0.19916 -0.4787,0.44258 0,0.24342 0.05,0.44258 0.1114,0.44258 0.061,0 0.2766,-0.19916 0.4787,-0.44258 z m 3.6498,-1.58048 c 0.425,-0.46957 0.436,-0.59742 0.077,-0.89533 -0.3272,-0.27156 -0.5223,-0.24395 -0.8926,0.12629 -0.5766,0.57658 -0.6198,1.31684 -0.077,1.31684 0.2183,0 0.62,-0.24651 0.8926,-0.5478 z m -0.7712,-2.12839 c 0.4378,-0.0177 0.4265,-0.0585 -0.076,-0.27432 -0.9466,-0.40673 -1.3278,-0.33343 -1.3278,0.25526 0,0.30267 -0.2612,0.88237 -0.5804,1.28822 -0.3193,0.40585 -0.5008,0.81761 -0.4033,0.91502 0.097,0.0974 0.5586,-0.34951 1.0248,-0.99316 0.4663,-0.64366 1.0793,-1.17962 1.3623,-1.19102 z m -26.1877,1.03926 c 0,-0.34857 -0.5578,-0.34791 -0.6916,8.2e-4 -0.109,0.28407 -0.021,0.37123 0.2641,0.26179 0.2351,-0.0902 0.4275,-0.20841 0.4275,-0.26261 z m 14.1059,-2.22086 c -0.058,-0.17445 -0.2318,-0.31718 -0.386,-0.31718 -0.1542,0 -0.3279,0.14273 -0.386,0.31718 -0.058,0.17445 0.1155,0.31718 0.386,0.31718 0.2705,0 0.4442,-0.14273 0.386,-0.31718 z m -10.4771,-1.01055 c 0.3985,-0.83567 0.6585,-1.03268 1.3631,-1.03268 1.4995,0 2.4728,0.51528 2.2904,1.21262 -0.1552,0.59384 -0.1425,0.59618 0.4291,0.0788 0.5451,-0.49326 0.5522,-0.56023 0.095,-0.89483 -0.2721,-0.19892 -1.1748,-0.50753 -2.0061,-0.68581 -0.8312,-0.17828 -1.8456,-0.40245 -2.2541,-0.49815 -0.6094,-0.14278 -0.6766,-0.10362 -0.374,0.21814 0.5383,0.57232 0.4536,1.17858 -0.2727,1.95166 -0.4831,0.51427 -0.533,0.68288 -0.2021,0.68288 0.2416,0 0.6609,-0.46471 0.9318,-1.03268 z m 13.6317,0.67394 c -1.1601,-0.40913 -1.1366,-0.37063 -0.7132,-1.16501 0.3343,-0.62723 0.3232,-0.65276 -0.1236,-0.28419 -0.27,0.22272 -0.4909,0.59212 -0.4909,0.8209 0,0.42756 0.9846,0.95319 1.7703,0.94504 0.2434,-0.003 0.044,-0.14506 -0.4426,-0.31674 z m 4.4046,-2.0322 c 1.2525,0.28029 1.768,0.28267 2.2936,0.0106 1.7626,-0.91226 2.8866,-2.86888 2.2892,-3.98509 -0.2955,-0.5521 -0.5923,-0.62261 -2.6002,-0.61772 -1.7008,0.004 -2.471,-0.12835 -3.085,-0.5307 -0.6725,-0.44059 -0.9511,-0.47577 -1.5625,-0.19721 -0.6086,0.27728 -0.7273,0.51328 -0.6518,1.29582 0.087,0.90616 0.1509,0.95336 1.1988,0.89186 1.2551,-0.0737 1.263,-0.0611 0.6747,1.07651 -0.4451,0.86081 -0.9908,1.20131 -1.9252,1.20131 -0.4795,0 -0.5035,0.11351 -0.2196,1.03868 l 0.3188,1.03869 0.8268,-0.79215 c 0.8065,-0.77263 0.8666,-0.78324 2.4424,-0.4306 z m -8.872,0.47083 c -0.094,-0.24467 0.052,-0.78514 0.3247,-1.20105 0.3973,-0.60632 0.6948,-0.73902 1.501,-0.66957 0.5529,0.0477 1.1678,-0.0757 1.3662,-0.2742 0.1985,-0.19846 0.7473,-0.36083 1.2197,-0.36083 h 0.8588 l -0.658,-0.53283 -0.658,-0.53282 0.6038,-1.18346 c 0.919,-1.80148 1.2979,-2.0192 2.7858,-1.60087 0.6898,0.19395 1.5861,0.41559 1.9918,0.49253 0.588,0.11153 0.5431,0.0502 -0.2213,-0.30244 -1.1623,-0.53616 -1.2058,-1.0287 -0.1811,-2.05337 0.4858,-0.48574 0.6243,-0.77786 0.3688,-0.77786 -0.2249,10e-6 -0.7893,0.47664 -1.2541,1.05919 -0.7671,0.96132 -0.9417,1.04108 -1.8897,0.86323 -0.7357,-0.13803 -1.3274,-0.0436 -2.0015,0.31941 -0.9423,0.50746 -0.9478,0.52274 -0.3626,0.99661 0.5923,0.47965 0.5917,0.48647 -0.2,2.04864 -0.7883,1.55567 -0.8026,1.56604 -1.9211,1.38718 -0.8484,-0.13566 -1.1688,-0.0712 -1.2962,0.2609 -0.2161,0.56314 -1.0995,0.56122 -2.4555,-0.005 -1.1704,-0.48903 -1.7224,-0.31688 -0.9036,0.28181 0.2837,0.20747 0.5158,0.65752 0.5158,1.00012 0,0.44926 0.2673,0.70008 0.9589,0.89978 1.4071,0.40626 1.6988,0.38405 1.5074,-0.11476 z m 2.3449,-0.33393 c 0.3141,-0.31417 -0.08,-0.68207 -0.5407,-0.50514 -0.2373,0.091 -0.358,0.28441 -0.2682,0.42969 0.1913,0.30945 0.5421,0.34218 0.8089,0.0754 z m 0.1505,-3.72074 c 0.1028,-0.89322 -0.1346,-0.9816 -1.2597,-0.46898 -1.2188,0.55532 -0.9229,1.52402 0.4177,1.36768 0.5705,-0.0665 0.7709,-0.28042 0.842,-0.8987 z m 8.5308,-1.57975 c -0.098,-0.0981 -0.3526,-0.10853 -0.5656,-0.0233 -0.2353,0.0942 -0.1654,0.16411 0.1783,0.17826 0.311,0.0128 0.4853,-0.0569 0.3873,-0.15496 z m 10.1116,-1.14259 c 0,-0.31554 -2.3315,-1.23977 -2.6426,-1.04753 -0.5911,0.36533 0.6903,1.11967 1.9787,1.16488 0.3652,0.0128 0.6639,-0.04 0.6639,-0.11735 z m 5.2526,-0.016 c -0.2247,-0.2247 -2.007,-0.71392 -2.007,-0.55089 0,0.18304 1.2225,0.66541 1.7457,0.68882 0.2299,0.0103 0.3475,-0.0518 0.2613,-0.13793 z m -11.3327,-0.90018 c 0.4321,-1.12595 0.1948,-1.36122 -0.6677,-0.66217 -0.4658,0.37747 -0.7899,0.78588 -0.7202,0.90759 0.2301,0.40226 1.2055,0.22978 1.3879,-0.24542 z m -1.4437,-3.33107 c -0.6496,-0.40297 -0.9909,-0.46515 -1.2826,-0.23363 -0.3239,0.25716 -0.2966,0.35513 0.1476,0.52993 0.2997,0.11795 0.8768,0.22308 1.2825,0.23363 0.7302,0.019 0.7288,0.0137 -0.1475,-0.52993 z m 6.3436,-0.92303 c -0.5813,-0.37566 -1.2648,-0.37566 -1.0327,0 0.1003,0.16227 0.4733,0.29301 0.8288,0.29053 0.5256,-0.004 0.5637,-0.058 0.2039,-0.29053 z m -16.5352,-1.46765 c 0.231,-0.14272 -0.026,-0.44123 -0.7461,-0.86597 -0.7362,-0.43432 -1.1964,-0.55032 -1.3952,-0.35161 -0.1987,0.19872 -0.038,0.4142 0.486,0.6531 0.4799,0.21866 0.7842,0.59495 0.787,0.97305 0,0.46224 0.069,0.5155 0.2602,0.21286 0.1407,-0.222 0.4143,-0.50165 0.6081,-0.62143 z m 2.8153,-2.66307 c -0.3245,-0.13946 -0.8556,-0.24967 -1.1802,-0.2449 -0.4744,0.007 -0.4454,0.055 0.1476,0.2449 1.0088,0.32309 1.7845,0.32309 1.0326,0 z m 21.6863,-0.85843 c -0.2434,-0.13771 -0.7745,-0.33838 -1.1802,-0.44591 l -0.7377,-0.19553 0.7377,0.44443 c 0.4057,0.24444 0.9368,0.4451 1.1802,0.44591 0.3934,10e-4 0.3934,-0.0263 0,-0.2489 z m -23.3091,-1.02783 c 0,-0.27989 -0.8832,-0.42096 -1.0406,-0.16621 -0.096,0.15519 0.099,0.28217 0.4331,0.28217 0.3342,0 0.6075,-0.0522 0.6075,-0.11596 z"
       id="path16"
       transform="scale(0.26458333)" /><path
       style="opacity:0.382979;fill:#f9f9f9;stroke:none;stroke-width:4.46061;stroke-dasharray:none"
       d="m -2232.9359,742.03448 c 0.01,-0.15207 0.2,-0.5284 0.4331,-0.83629 0.5066,-0.66934 0.3811,-0.92708 -0.7321,-1.50271 -0.739,-0.38219 -0.9626,-0.38289 -1.8253,-0.006 -0.5407,0.2364 -1.3704,0.83165 -1.8437,1.32279 -0.885,0.91834 -1.3614,1.03778 -2.385,0.59793 -0.4891,-0.21018 -0.4202,-0.25713 0.4028,-0.27431 0.738,-0.0154 1.2303,-0.27976 1.9178,-1.0297 0.5087,-0.55492 1.2821,-1.0984 1.7186,-1.20773 0.7095,-0.17771 0.7633,-0.27835 0.5081,-0.94979 -0.3365,-0.88505 -0.4149,-0.7806 1.0371,-1.38257 0.7007,-0.2905 1.2654,-0.37365 1.4287,-0.21038 0.1633,0.16326 -0.1367,0.40419 -0.7589,0.60954 -0.8282,0.27334 -0.9981,0.45747 -0.8709,0.94403 0.1321,0.50503 0.3472,0.58644 1.3075,0.49486 1.0276,-0.098 1.1677,-0.0305 1.3216,0.63683 0.095,0.41054 0.3809,0.91241 0.6359,1.11525 0.4129,0.32854 0.4028,0.36882 -0.093,0.36882 -0.3061,0 -0.9289,0.35677 -1.3841,0.79282 -0.4551,0.43606 -0.8233,0.66841 -0.8181,0.51634 z"
       id="path17"
       transform="scale(0.26458333)" /><path
       style="opacity:0.382979;fill:#f9f9f9;stroke:none;stroke-width:4.46061;stroke-dasharray:none"
       d="m -2241.7175,739.93075 c 0.2871,-0.0748 0.6854,-0.0699 0.8852,0.0109 0.1998,0.0808 -0.035,0.14203 -0.522,0.13601 -0.4868,-0.006 -0.6502,-0.0721 -0.3632,-0.14694 z"
       id="path18"
       transform="scale(0.26458333)" /><path
       style="opacity:0.382979;fill:#f9f9f9;stroke:none;stroke-width:8.92122;stroke-dasharray:none"
       d="m -2217.6027,596.84657 c 0,-0.71705 -0.3833,-1.59854 -0.8517,-1.95888 -1.2438,-0.95665 0.064,-13.30771 1.4201,-13.41226 1.7693,-0.1364 2.6864,0.16354 3.4226,1.11926 0.6813,0.88451 0.8553,0.85782 2.0234,-0.31031 l 1.278,-1.27805 -1.7283,-0.68598 c -0.9993,-0.39662 -1.4076,-0.80473 -0.9679,-0.96749 0.4183,-0.15483 1.3436,0.10564 2.0562,0.57883 1.1605,0.7705 1.5432,0.73355 3.6653,-0.35389 2.7395,-1.40384 3.4409,-2.21297 2.6253,-3.02861 -0.3803,-0.38027 -1.0041,-0.31559 -1.81,0.18769 -0.986,0.61577 -1.1798,0.61851 -0.9783,0.0138 0.3005,-0.90128 3.2094,-2.51429 4.9678,-2.75466 1.6676,-0.22796 2.3024,1.42909 0.7073,1.84623 -1.6151,0.42236 -1.0469,1.86744 0.7343,1.86744 2.0006,0 3.157,-2.47599 2.1597,-4.624 -0.3991,-0.85957 -0.9248,-1.56494 -1.1682,-1.56747 -0.2434,-0.003 -0.4426,-0.40292 -0.4426,-0.88976 0,-1.17784 1.1685,-1.12666 2.0583,0.0902 0.7997,1.09361 2.325,0.53402 1.8584,-0.6818 -0.1626,-0.42369 0.2158,-0.90075 0.8449,-1.06527 1.3243,-0.34629 1.5106,-1.48323 0.3182,-1.94081 -0.6259,-0.24019 -0.4659,-0.69185 0.6729,-1.89931 0.9835,-1.04269 1.5835,-1.33206 1.7556,-0.84656 0.3962,1.11813 1.8079,0.88218 2.2049,-0.36853 0.4002,-1.26114 5.9401,-5.03877 8.2333,-5.61434 0.989,-0.24821 1.5269,-0.78832 1.5269,-1.53316 0,-0.94928 0.2316,-1.06151 1.3277,-0.64317 0.8237,0.31441 1.2815,0.93893 1.2059,1.64531 -0.099,0.92221 0.1817,1.09435 1.4753,0.90596 0.8784,-0.12792 2.3937,0.10664 3.3673,0.52125 l 1.7703,0.75384 -1.9293,0.21307 c -1.8609,0.20552 -4.3094,2.65105 -3.4823,3.47815 0.1948,0.19482 0.079,0.8679 -0.2567,1.49573 -0.492,0.91931 -0.3174,1.43497 0.8967,2.64912 0.8292,0.82919 1.3622,1.74298 1.1844,2.03064 -0.1778,0.28765 0.068,0.67327 0.5469,0.85692 1.1531,0.44246 0.8903,3.64866 -0.469,5.7232 -0.8524,1.301 -1.2386,1.47496 -2.1691,0.97697 -1.4939,-0.79951 -2.4704,-0.13264 -2.0667,1.41137 0.1847,0.70622 -0.071,1.67643 -0.5953,2.25535 -0.7547,0.83397 -1.1811,0.89674 -2.3803,0.35036 -1.1642,-0.53042 -1.5699,-0.49264 -1.9977,0.18599 -0.3609,0.57257 -0.2483,1.06784 0.3438,1.51154 0.7801,0.58455 0.7789,0.74449 -0.011,1.39999 -0.7332,0.60851 -0.8917,0.56988 -0.8917,-0.21737 0,-1.09751 -1.8428,-1.27593 -3.5794,-0.34654 -1.5004,0.80303 -1.4717,1.97357 0.039,1.57856 0.8754,-0.22893 1.1802,-0.0181 1.1802,0.81633 0,0.61873 -0.3766,1.12496 -0.8369,1.12496 -0.4602,0 -1.223,0.14818 -1.695,0.32929 -0.652,0.25022 -0.7888,-0.0332 -0.5695,-1.1802 0.2698,-1.41144 0.1384,-1.5095 -2.0227,-1.5095 -1.2711,0 -2.6097,0.29854 -2.9746,0.66341 -0.4911,0.49115 -1.1633,0.48914 -2.5887,-0.008 -1.3001,-0.45324 -2.1194,-0.47704 -2.5231,-0.0733 -0.8152,0.81524 -1.3024,0.75314 -2.3558,-0.30029 -0.8041,-0.8041 -0.9375,-0.68831 -1.2741,1.10601 -0.2574,1.37189 -0.6855,1.98101 -1.357,1.93081 -0.7072,-0.0529 -0.9809,0.40735 -0.9809,1.64977 0,1.39398 -0.3207,1.80976 -1.6789,2.17686 -0.9234,0.24957 -2.0319,0.93467 -2.4634,1.52246 -0.4363,0.59424 -1.5248,1.0687 -2.4518,1.0687 -1.385,0 -1.6673,0.24975 -1.6673,1.47525 0,1.08062 -0.3552,1.5257 -1.3277,1.66383 -1.0332,0.14673 -1.3278,-0.10068 -1.3278,-1.11515 z m 12.6777,-14.09091 c 0.22,-0.69337 0.7032,-1.02032 1.2166,-0.82331 0.4683,0.17972 0.7046,0.56449 0.525,0.85504 -0.4578,0.74075 1.1438,0.66192 1.8992,-0.0935 0.4356,-0.43559 1.2677,-0.31369 2.7794,0.40716 1.5239,0.72672 2.3419,0.84464 2.785,0.40151 0.4432,-0.44313 0.193,-0.73643 -0.8517,-0.99863 -0.8135,-0.20419 -1.646,-0.89708 -1.85,-1.53977 -0.3483,-1.09729 -0.4586,-1.11106 -1.8096,-0.22581 -1.3686,0.89673 -1.4388,0.88184 -1.4388,-0.30536 0,-1.46856 -1.1456,-1.60141 -3.4654,-0.40183 -2.0653,1.06804 -3.2395,2.46111 -2.7467,3.25862 0.6395,1.0346 2.5697,0.68592 2.957,-0.53414 z m 22.3445,-3.25677 c 0.5605,-1.46077 -0.8423,-1.71036 -2.1671,-0.38556 l -1.2518,1.25181 h 1.5432 c 0.8488,0 1.6929,-0.38981 1.8757,-0.86625 z m -9.6478,-1.49415 c 0,-0.32456 -0.3983,-0.5901 -0.8851,-0.5901 -0.4869,0 -0.8852,0.26554 -0.8852,0.5901 0,0.32455 0.3983,0.5901 0.8852,0.5901 0.4868,0 0.8851,-0.26555 0.8851,-0.5901 z m 14.605,-3.32244 c 1.3567,-0.36359 1.8281,-2.19973 0.7377,-2.87363 -0.3246,-0.20059 -0.5901,-1.02224 -0.5901,-1.8259 0,-1.31859 -0.1256,-1.39399 -1.2866,-0.77264 -1.2156,0.65055 -1.2285,0.73097 -0.2347,1.45766 0.9735,0.71187 0.9815,0.86957 0.1063,2.11897 -1.5439,2.20423 -1.2917,2.58136 1.2674,1.89554 z m -3.2762,-8.02419 c 0.6374,-0.73495 0.8699,-1.40506 0.527,-1.51933 -0.3914,-0.13048 -0.3208,-0.66887 0.1951,-1.48809 0.4447,-0.70601 0.9868,-1.88113 1.2047,-2.61138 0.333,-1.11558 0.1722,-1.32773 -1.0059,-1.32773 -0.7713,0 -1.9142,0.37434 -2.5399,0.83186 -1.0826,0.79163 -1.0881,0.88661 -0.1128,1.96429 1.3356,1.4758 1.2943,2.33647 -0.1554,3.24182 -0.6491,0.40537 -1.1802,1.07149 -1.1802,1.48025 0,1.19632 1.8298,0.8553 3.0674,-0.57169 z m -5.765,-1.97281 c 1.124,-1.12396 1.2153,-2.61331 0.1602,-2.61331 -1.0947,0 -2.1834,1.23582 -2.1834,2.47843 0,1.30872 0.7963,1.36181 2.0232,0.13488 z"
       id="path20"
       transform="scale(0.26458333)" /><path
       style="opacity:0.382979;fill:#f9f9f9;stroke:none;stroke-width:2.23031;stroke-dasharray:none"
       d="m -2203.5857,558.46151 c -0.2022,-0.37793 0.071,-1.51384 0.4463,-1.85321 0.386,-0.34929 1.3039,-0.3471 1.5604,0.004 0.3445,0.4711 0.2314,0.87228 -0.4284,1.51983 -0.7087,0.69555 -1.3147,0.82212 -1.5783,0.32966 z m 1.3154,-0.95189 c 0.3618,-0.38505 0.3059,-0.67478 -0.1302,-0.67478 -0.2844,0 -0.4496,0.2755 -0.4496,0.74969 0,0.37903 0.1746,0.35647 0.5798,-0.0749 z"
       id="path21"
       transform="scale(0.26458333)" /><path
       style="opacity:0.382979;fill:#f9f9f9;stroke:none;stroke-width:4.46061;stroke-dasharray:none"
       d="m -2178.5015,540.73691 c -0.085,-0.085 -0.1544,-0.43771 -0.1544,-0.7839 0,-0.3462 -0.1572,-0.78656 -0.3492,-0.97859 -0.5432,-0.54324 -0.054,-0.77021 1.008,-0.46756 0.7882,0.22463 0.9803,0.44103 1.0536,1.18689 0.076,0.77355 -0.024,0.93387 -0.6569,1.0549 -0.4107,0.0785 -0.8161,0.0732 -0.9011,-0.0117 z"
       id="path23"
       transform="scale(0.26458333)" /><path
       style="opacity:0.382979;fill:#f9f9f9;stroke:none;stroke-width:4.46061;stroke-dasharray:none"
       d="m -2672.7187,906.10938 c -0.4868,-0.21824 -2.2793,-0.91723 -3.9832,-1.55331 -2.4936,-0.93087 -3.0795,-1.2595 -3.0033,-1.6844 0.081,-0.4501 -0.072,-0.50753 -1.0327,-0.38973 -1.2337,0.15121 -3.7677,-0.77798 -4.4828,-1.6438 -0.4986,-0.6037 0.01,-1.37543 0.903,-1.37543 0.7466,0 1.7489,-0.52102 2.3049,-1.19818 0.3475,-0.42322 0.6597,-0.4934 1.4532,-0.3267 1.2151,0.25528 1.5861,0.93478 0.5103,0.93478 -0.8932,0 -1.707,0.73636 -1.4768,1.33626 0.2122,0.55291 1.2616,0.54352 2.0039,-0.0179 0.315,-0.23826 1.0074,-0.43319 1.5386,-0.43319 0.653,0 1.0649,-0.18489 1.2713,-0.57071 0.4055,-0.75761 0.3861,-0.90455 -0.1197,-0.90455 -0.7012,0 -0.8467,-0.58988 -0.2956,-1.19879 0.3604,-0.39827 0.9058,-0.57151 1.7992,-0.57151 0.7051,0 1.2799,0.0996 1.2775,0.22129 -0.01,0.47968 -0.4755,0.87721 -1.2495,1.06663 -0.4463,0.10922 -0.8114,0.32382 -0.8114,0.4769 0,0.35459 3.8485,0.0308 4.352,-0.3661 0.5868,-0.46262 0.4315,-0.98041 -0.409,-1.36334 l -0.7778,-0.35439 0.6817,-0.72565 c 0.722,-0.76854 1.0783,-0.86768 1.7004,-0.4731 0.307,0.19472 0.3122,0.40099 0.026,1.02941 -0.4958,1.08805 -0.1128,1.31809 0.787,0.47275 0.5411,-0.50829 0.7042,-0.89655 0.5817,-1.38454 -0.2172,-0.86559 0.6489,-1.28306 1.1735,-0.56563 0.56,0.76597 1.2511,0.58903 2.7999,-0.71692 1.3746,-1.15916 1.4719,-1.19295 2.4332,-0.84534 0.9143,0.33062 1.1067,0.29239 2.2132,-0.4399 0.6666,-0.4411 1.2841,-0.9901 1.3723,-1.22002 0.2572,-0.67002 1.0542,-0.4826 1.3592,0.31961 0.3235,0.85092 0.291,0.84135 1.3823,0.4071 0.4568,-0.18179 1.5834,-0.34776 2.5035,-0.36882 1.3322,-0.0305 1.8281,-0.18401 2.4342,-0.75358 0.4187,-0.39341 0.7612,-1.02408 0.7612,-1.40149 0,-0.38614 0.1777,-0.6862 0.4065,-0.6862 0.2235,0 0.5717,-0.19915 0.7737,-0.44257 0.483,-0.58202 1.6066,-0.56413 2.2059,0.0351 0.2627,0.26274 0.5108,0.42871 0.5514,0.36882 0.041,-0.0599 0.2305,-0.47402 0.4222,-0.92028 0.2053,-0.47797 0.5787,-0.81139 0.9088,-0.81139 0.3081,0 0.7136,-0.18481 0.9011,-0.41069 0.7396,-0.89115 1.4654,-0.7528 2.4282,0.46288 1.1251,1.42059 2.2293,1.93433 2.8416,1.32209 0.3283,-0.32837 0.3471,-0.55687 0.086,-1.04481 -0.1838,-0.34349 -0.4623,-0.62452 -0.6189,-0.62452 -0.1566,0 -0.2847,-0.20096 -0.2847,-0.44658 0,-0.24562 -0.1659,-0.71438 -0.3688,-1.04168 -0.3039,-0.49039 -0.2909,-0.64611 0.074,-0.88499 0.2434,-0.15944 0.7081,-0.2217 1.0327,-0.13836 0.3245,0.0833 1.0847,0.23428 1.6892,0.33543 1.0051,0.16817 1.1441,0.10515 1.6228,-0.73592 0.3275,-0.57522 0.7585,-0.92053 1.1506,-0.9217 0.3448,-10e-4 1.0419,-0.0849 1.549,-0.18627 0.7662,-0.15324 0.9221,-0.32244 0.9221,-1.00111 0,-1.00268 0.7066,-1.33336 1.5648,-0.73225 1.1903,0.83367 3.156,0.3618 3.156,-0.75758 0,-0.33529 -0.2861,-0.70423 -0.6639,-0.85607 -0.4701,-0.18894 0.1397,-0.2723 2.0888,-0.28554 l 2.7527,-0.0187 -0.1686,-0.81139 c -0.1109,-0.53384 0.01,-1.03473 0.3454,-1.46433 0.4459,-0.56649 0.6606,-0.61939 1.622,-0.39953 0.6094,0.13938 1.3424,0.54295 1.629,0.89681 0.404,0.49898 0.7017,0.59802 1.3261,0.4413 1.0047,-0.25217 1.0329,-0.60707 0.068,-0.84937 -0.4057,-0.10183 -0.7376,-0.37709 -0.7376,-0.61171 0,-0.52772 0.9929,-1.09081 1.5478,-0.87784 0.2258,0.0866 2.4587,0.59711 4.9621,1.13444 3.9322,0.844 4.5518,1.05331 4.5531,1.538 0,0.69823 1.6462,0.95048 2.1601,0.33134 0.2016,-0.24297 0.6884,-0.35595 1.2061,-0.27996 l 0.8681,0.12741 -0.5663,0.92876 c -1.108,1.81708 -0.3891,2.1819 1.9005,0.96449 1.0184,-0.54151 1.2411,-0.78302 0.9745,-1.05695 -0.2687,-0.27611 -0.017,-0.3085 1.1297,-0.14567 1.8049,0.25618 1.9693,0.34464 1.8582,1.00017 -0.048,0.28525 0.091,0.73448 0.3102,0.99828 0.3411,0.4109 0.2988,0.60538 -0.295,1.35674 -0.8207,1.03849 -1.2929,1.1226 -1.7943,0.31963 -0.5484,-0.87811 -1.106,-0.72512 -2.6937,0.73898 l -1.4343,1.32279 -2.2481,-0.12771 c -2.4665,-0.14012 -3.601,0.29286 -4.6921,1.79068 -0.4926,0.67626 -0.7401,0.7441 -2.7929,0.76536 -1.9304,0.02 -2.2727,0.1012 -2.3948,0.56811 -0.078,0.29963 -0.3874,0.61841 -0.6868,0.70842 -0.2994,0.09 -1.0505,0.43131 -1.6691,0.75847 l -1.1248,0.59483 -0.3414,-0.90451 c -0.3973,-1.05241 -0.9029,-1.12704 -2.1299,-0.31441 -0.4868,0.32242 -1.1175,0.58709 -1.4015,0.58816 -0.319,10e-4 -0.5163,0.22749 -0.5163,0.59205 0,0.45897 0.1967,0.5901 0.8851,0.5901 0.6017,0 0.8852,0.14604 0.8852,0.45594 0,0.37189 -0.204,0.41269 -1.1065,0.22129 -1.6648,-0.35309 -4.7144,-0.15284 -5.8453,0.38383 -0.8536,0.40506 -0.9575,0.55961 -0.6998,1.04113 0.4084,0.76319 0.1138,1.14337 -0.8862,1.14337 -0.4574,0 -1.0053,0.20931 -1.2176,0.46512 -0.2654,0.31978 -0.6685,0.41351 -1.2901,0.29993 -0.4972,-0.0909 -1.084,-0.0513 -1.304,0.0878 -0.2299,0.14547 -0.8399,0.11795 -1.4352,-0.0648 -0.958,-0.29402 -1.0788,-0.25816 -1.6163,0.47973 -0.4808,0.66003 -0.8072,0.7975 -1.8934,0.7975 -1.4041,0 -1.9474,0.54023 -1.3125,1.30521 0.4891,0.58932 -0.081,0.8625 -1.316,0.63078 -1.0998,-0.20632 -2.2059,-1.46202 -2.2059,-2.50421 0,-0.38238 -0.2903,-0.75691 -0.7486,-0.96569 -0.6208,-0.28286 -0.8347,-0.25344 -1.2539,0.17241 -0.4778,0.48537 -0.4637,0.54979 0.258,1.17715 0.6465,0.56203 0.7515,0.87438 0.6858,2.0395 -0.043,0.7567 -0.1631,1.51405 -0.2675,1.68298 -0.2957,0.4784 -0.7005,0.0659 -0.5395,-0.5498 0.1061,-0.40599 -0.057,-0.6022 -0.6178,-0.74295 -0.4626,-0.11609 -0.7621,-0.39781 -0.7621,-0.71674 0,-0.59033 -0.5399,-1.23359 -1.0353,-1.23359 -0.1799,0 -0.5849,0.18846 -0.8999,0.41879 -0.5625,0.41134 -0.5607,0.43158 0.101,1.13592 0.5277,0.56174 0.5916,0.77913 0.295,1.00331 -0.3803,0.28745 -2.0136,0.80235 -3.5792,1.12837 -0.7232,0.15059 -0.8143,0.27774 -0.6548,0.9133 0.2716,1.08221 0.021,1.25909 -1.2882,0.90961 -0.9842,-0.26269 -1.2634,-0.2325 -1.7266,0.1867 -0.9769,0.88412 -4.1562,0.56141 -4.8401,-0.49129 -0.2374,-0.36541 -1.4913,0.63651 -1.2616,1.00809 0.079,0.1281 0.5481,0.32169 1.0421,0.43019 1.1572,0.25415 1.0521,1.08287 -0.1691,1.33418 -0.4858,0.1 -1.1841,0.34334 -1.5516,0.54079 -0.5487,0.29477 -0.6979,0.28166 -0.8341,-0.0732 -0.091,-0.23774 -0.01,-0.73085 0.1892,-1.09581 0.2998,-0.56002 0.2701,-0.72577 -0.1901,-1.06224 -0.2998,-0.21928 -0.7258,-0.32937 -0.9466,-0.24465 -0.2208,0.0847 -0.5792,0.15404 -0.7964,0.15404 -0.6365,0 -0.8743,1.71961 -0.3222,2.32969 0.2587,0.28586 0.4704,0.59104 0.4704,0.67816 0,0.0871 -0.9328,0.22516 -2.073,0.30674 -1.3288,0.0951 -2.2639,0.32112 -2.6049,0.62974 -0.6183,0.55959 -0.5277,0.55704 -1.6657,0.0469 z m 15.7852,-7.19492 c 0,-0.40688 -2.0359,-0.97277 -2.5217,-0.70091 -0.6261,0.35035 -0.025,0.8603 1.194,1.0123 0.9561,0.11925 1.3277,0.0321 1.3277,-0.31139 z m -7.0812,-1.81216 c 0,-0.16228 -0.1406,-0.29505 -0.3125,-0.29505 -0.1718,0 -0.2304,0.13277 -0.1301,0.29505 0.1003,0.16228 0.2409,0.29505 0.3125,0.29505 0.072,0 0.1301,-0.13277 0.1301,-0.29505 z m 10.6218,0 c 0,-0.16228 -0.1991,-0.29505 -0.4425,-0.29505 -0.2435,0 -0.4426,0.13277 -0.4426,0.29505 0,0.16228 0.1991,0.29505 0.4426,0.29505 0.2434,0 0.4425,-0.13277 0.4425,-0.29505 z m -8.0217,-0.86671 c 0.074,-0.22129 -0.037,-0.33193 -0.2581,-0.25817 -0.213,0.071 -0.4454,0.30335 -0.5164,0.51634 -0.074,0.22129 0.037,0.33193 0.2582,0.25817 0.213,-0.071 0.4453,-0.30335 0.5163,-0.51634 z m 7.1366,-0.91865 c 0,-0.45801 -2.0181,-1.21993 -2.6771,-1.01075 -0.5633,0.17879 -0.7507,0.74526 -0.3718,1.12415 0.3248,0.32473 3.0489,0.2234 3.0489,-0.1134 z m 4.0967,-1.45429 c 0.3276,-0.1775 0.2837,-0.34634 -0.2213,-0.85129 -1.1102,-1.11025 -2.6849,-0.51645 -2.2515,0.84905 0.166,0.52281 0.3465,0.5903 1.1309,0.42288 0.5133,-0.10957 1.1172,-0.29886 1.3419,-0.42064 z m 3.7284,-1.48814 c 0.3744,-0.4136 0.446,-0.69142 0.2333,-0.90412 -0.3618,-0.36187 -1.2722,0.41073 -1.2722,1.0797 0,0.59258 0.4059,0.52399 1.0389,-0.17558 z m 4.6242,-0.73065 c 0.043,-0.48733 -2.094,-1.17922 -2.4726,-0.8006 -0.2335,0.23346 -0.046,0.44413 0.6776,0.76229 1.0958,0.4817 1.7547,0.49576 1.795,0.0383 z m 6.2549,-0.0241 c 0.3298,-0.85967 0.1847,-0.96614 -0.7092,-0.5202 -0.4885,0.24371 -0.8126,0.56547 -0.7202,0.71501 0.2729,0.44166 1.2355,0.31048 1.4294,-0.19481 z m 1.0535,-1.73325 c 0.1961,-0.23631 0.2585,-0.58836 0.1386,-0.78233 -0.157,-0.25396 -0.3292,-0.20051 -0.6155,0.191 -0.6998,0.95707 -0.2695,1.49067 0.4769,0.59133 z m -4.12,-0.4555 c 0,-0.16228 -0.1992,-0.29505 -0.4426,-0.29505 -0.2434,0 -0.4426,0.13277 -0.4426,0.29505 0,0.16227 0.1992,0.29505 0.4426,0.29505 0.2434,0 0.4426,-0.13278 0.4426,-0.29505 z m 9.0924,-0.66387 c 0.106,-0.92078 0.068,-0.93936 -0.9646,-0.46898 -1.1401,0.51946 -0.9393,1.53954 0.269,1.36658 0.4103,-0.0587 0.632,-0.34482 0.6956,-0.8976 z m -5.5362,-1.58994 c 0.1628,-0.4282 0.2222,-0.85233 0.132,-0.94252 -0.2758,-0.27575 -1.4132,1.04918 -1.1987,1.39626 0.3362,0.54396 0.7551,0.36578 1.0667,-0.45374 z m 9.426,-0.0705 c 0,-0.90146 -0.7736,-1.36187 -1.6315,-0.97099 -1.3045,0.59437 -0.909,1.52496 0.648,1.52496 0.7654,0 0.9835,-0.12284 0.9835,-0.55397 z m 8.9193,-2.17525 c 0.589,-0.90795 0.3454,-1.40149 -0.6919,-1.40149 -0.6311,0 -0.9392,0.18236 -1.1217,0.66386 -0.505,1.33271 1.0241,1.95463 1.8136,0.73763 z m 4.9481,-1.15011 c 0,-0.42737 -0.8932,-0.65641 -1.2333,-0.31627 -0.1697,0.16969 -0.227,0.4404 -0.1274,0.60158 0.2141,0.34639 1.3607,0.10596 1.3607,-0.28531 z m 5.7396,-2.9294 c -0.3236,-0.52355 -1.3321,-0.27431 -1.5837,0.39137 -0.3818,1.01008 -0.076,1.18275 0.8842,0.49912 0.4773,-0.3399 0.7921,-0.74062 0.6995,-0.89049 z m -8.1799,-0.7458 c -0.098,-0.098 -0.3525,-0.10853 -0.5655,-0.0233 -0.2354,0.0942 -0.1655,0.16411 0.1783,0.17826 0.311,0.0128 0.4852,-0.0569 0.3872,-0.15496 z m -2.4111,-3.1907 c 0.6755,-0.49396 0.3247,-1.02869 -0.3823,-0.58271 -0.5525,0.34851 -0.848,1.00116 -0.4532,1.00116 0.1448,0 0.5207,-0.1883 0.8355,-0.41845 z"
       id="path25"
       transform="scale(0.26458333)" /><path
       style="opacity:0.382979;fill:#f9f9f9;stroke:none;stroke-width:4.46061;stroke-dasharray:none"
       d="m -2570.336,906.32391 -0.8852,-0.49144 0.8852,-0.16061 c 0.7068,-0.12825 1.0337,-0.46217 1.6228,-1.65751 0.9483,-1.92448 1.7753,-3.16967 1.9735,-2.97145 0.086,0.0859 -0.1088,0.52891 -0.4326,0.98452 -0.7192,1.01173 -1.2742,2.91911 -1.0327,3.54851 0.1042,0.27155 -0.049,0.62871 -0.3692,0.86314 -0.6705,0.49033 -0.6714,0.49028 -1.7618,-0.11516 z"
       id="path26"
       transform="scale(0.26458333)" /><path
       style="opacity:0.382979;fill:#f9f9f9;stroke:none;stroke-width:2.23031;stroke-dasharray:none"
       d="m -2513.5145,882.08385 c -0.1461,-0.17604 -0.071,-0.22506 0.4507,-0.29507 0.6644,-0.0891 0.8461,-0.0353 0.6217,0.18418 -0.2704,0.26434 -0.8918,0.32859 -1.0724,0.11089 z"
       id="path27"
       transform="scale(0.26458333)" /></g></svg>
